<svg xmlns="http://www.w3.org/2000/svg" viewBox="0 0 48 48" id="virus">
  <path d="m11.84 18.82.61-1.48c.35.1.7.16 1.05.16s.7-.07 1.05-.16l1.39 3.36c-.46.41-.63 1.08-.38 1.68.15.37.44.66.81.81a1.423 1.423 0 0 0 1.14 0c.76-.32 1.13-1.2.81-1.96-.25-.6-.85-.95-1.46-.92l-1.39-3.36c.62-.35 1.13-.86 1.48-1.48l1.48.61a2.496 2.496 0 0 0 2.45 2.97c.98 0 1.91-.58 2.31-1.54.26-.62.26-1.3 0-1.91-.26-.62-.74-1.1-1.35-1.35-.62-.26-1.3-.26-1.91 0-.46.19-.84.51-1.12.91l-1.48-.61c.19-.69.19-1.41 0-2.1l3.37-1.4c.15.16.32.3.53.39.19.08.38.11.57.11.19 0 .39-.04.57-.12.37-.15.66-.44.81-.81s.15-.78 0-1.15c-.32-.76-1.2-1.13-1.96-.81-.6.25-.95.85-.92 1.46l-3.36 1.39c-.35-.62-.86-1.13-1.48-1.49l.61-1.48c.16.03.31.05.47.05.98 0 1.92-.58 2.31-1.54.26-.62.26-1.3 0-1.91-.26-.62-.74-1.1-1.35-1.35-.62-.26-1.3-.26-1.91 0-.62.25-1.1.74-1.35 1.35-.46 1.12-.05 2.38.91 3.03l-.61 1.48a3.94 3.94 0 0 0-2.1 0L11.06 6.3c.46-.41.63-1.08.39-1.68-.16-.38-.45-.67-.82-.82-.37-.15-.78-.15-1.15 0-.37.15-.66.44-.81.81s-.15.78 0 1.15c.24.58.8.93 1.39.93.02 0 .05-.01.07-.01l1.39 3.36c-.62.35-1.13.86-1.48 1.48l-1.48-.61c.22-1.14-.38-2.32-1.5-2.79A2.51 2.51 0 0 0 3.8 9.48c-.26.62-.26 1.3 0 1.91.26.62.74 1.1 1.35 1.35.31.13.63.19.96.19s.65-.06.96-.19c.46-.19.84-.51 1.11-.91l1.48.61a3.94 3.94 0 0 0 0 2.1l-3.37 1.4c-.15-.16-.32-.3-.53-.39-.37-.15-.78-.15-1.15 0a1.513 1.513 0 0 0-.81 1.97 1.504 1.504 0 0 0 1.96.82c.6-.25.95-.85.92-1.46l3.36-1.39c.35.62.86 1.13 1.48 1.48l-.61 1.48c-1.14-.22-2.32.38-2.79 1.5-.26.62-.26 1.3 0 1.91.26.62.74 1.1 1.35 1.35a2.493 2.493 0 0 0 3.26-1.35c.48-1.13.07-2.39-.89-3.04zm5.57 2.8a.497.497 0 1 1-.92.38c-.11-.25.02-.55.27-.65.06-.03.13-.04.19-.04.19.01.38.12.46.31zm2.91-6.44a1.423 1.423 0 0 1 1.14 0c.37.15.66.44.81.81.15.37.15.78 0 1.15-.32.76-1.2 1.13-1.96.81A1.502 1.502 0 0 1 19.5 16l.01-.01v-.01c.15-.37.44-.65.81-.8zm1.3-5.59c.26-.1.55.02.65.27a.5.5 0 0 1-.27.65.5.5 0 0 1-.65-.27c-.1-.25.02-.54.27-.65zm-6.44-4.05c.15-.37.44-.66.81-.81.37-.15.78-.15 1.15 0 .37.15.66.44.81.81s.15.78 0 1.15-.44.66-.81.81a1.5 1.5 0 0 1-1.14 0s-.01 0-.01-.01h-.01a1.488 1.488 0 0 1-.8-1.95zm-5.59-.16a.5.5 0 0 1 .46-.69.51.51 0 0 1 .46.31c.11.25-.02.55-.27.65-.25.1-.54-.02-.65-.27zm-2.91 6.44c-.37.15-.78.15-1.15 0-.37-.15-.66-.44-.81-.81a1.504 1.504 0 0 1 1.96-1.97c.76.33 1.13 1.2.82 1.96 0 0 0 .01-.01.01v.01c-.15.37-.44.65-.81.8zm-1.3 5.59c-.26.1-.55-.02-.65-.27a.5.5 0 0 1 .27-.65c.06-.03.13-.04.19-.04s.13.01.19.04c.12.05.22.15.27.27.1.25-.02.54-.27.65zm5.35-2.76a2.96 2.96 0 0 1 0-2.3c.31-.74.88-1.32 1.62-1.62.37-.15.76-.23 1.15-.23s.78.08 1.15.23c.74.31 1.32.88 1.62 1.62s.31 1.56 0 2.3-.88 1.32-1.62 1.62c-.74.31-1.56.31-2.3 0a2.96 2.96 0 0 1-1.62-1.62zm1.09 6.82a1.5 1.5 0 0 1-2.77 0c-.15-.37-.15-.78 0-1.15.32-.76 1.19-1.12 1.95-.82l.01.01h.01c.37.15.65.44.8.81.16.37.16.78 0 1.15zm31.03-5.43c-.62-.26-1.3-.26-1.91 0-.46.19-.84.51-1.11.91l-1.48-.61c.19-.69.19-1.41 0-2.1l3.37-1.4c.15.16.32.3.53.39.19.08.38.11.57.11.19 0 .39-.04.57-.12.37-.15.66-.44.81-.81s.15-.78 0-1.15c-.32-.76-1.2-1.13-1.96-.81-.6.25-.95.85-.92 1.46l-3.36 1.39c-.35-.62-.86-1.13-1.48-1.48l.61-1.48c.16.03.31.05.47.05.98 0 1.92-.58 2.31-1.54.26-.62.26-1.3 0-1.91-.26-.62-.74-1.1-1.35-1.35-1.27-.53-2.74.08-3.27 1.35-.46 1.12-.05 2.38.91 3.03l-.61 1.48a3.94 3.94 0 0 0-2.1 0l-1.39-3.36c.45-.43.63-1.09.38-1.69-.32-.76-1.2-1.13-1.96-.81a1.504 1.504 0 0 0 .58 2.89c.02 0 .05-.01.07-.01l1.39 3.36c-.62.35-1.13.86-1.48 1.48l-1.48-.61c.22-1.14-.38-2.32-1.5-2.78-1.28-.53-2.74.08-3.27 1.35-.26.62-.26 1.3 0 1.91.26.62.74 1.1 1.35 1.35.31.13.63.19.96.19s.65-.06.96-.19c.46-.19.84-.51 1.12-.91l1.48.61a3.94 3.94 0 0 0 0 2.1l-3.37 1.4c-.15-.16-.32-.3-.53-.39-.37-.15-.78-.15-1.15 0-.37.15-.66.44-.81.81a1.504 1.504 0 0 0 1.96 1.97c.6-.25.95-.85.92-1.46l3.36-1.39c.35.62.86 1.13 1.48 1.49l-.61 1.48c-1.14-.22-2.32.38-2.78 1.5-.26.62-.26 1.3 0 1.91.26.62.74 1.1 1.35 1.35.31.13.63.19.96.19s.65-.06.96-.19c.62-.25 1.1-.74 1.35-1.35.46-1.12.05-2.38-.91-3.03l.61-1.48c.35.1.7.16 1.05.16s.7-.07 1.05-.16l1.39 3.36c-.46.41-.63 1.08-.38 1.68.15.37.44.66.81.81a1.423 1.423 0 0 0 1.14 0c.37-.15.66-.44.81-.81s.15-.78 0-1.15c-.25-.6-.85-.95-1.46-.92l-1.39-3.36c.62-.35 1.13-.86 1.48-1.48l1.48.61c-.22 1.14.38 2.32 1.5 2.79.31.13.64.19.95.19.98 0 1.91-.58 2.31-1.54.26-.62.26-1.3 0-1.91a2.38 2.38 0 0 0-1.34-1.37zm-.23-4.66c.26-.1.55.02.65.27a.5.5 0 0 1-.27.65.5.5 0 0 1-.65-.27c-.1-.25.02-.55.27-.65zm-6.44-4.06c.32-.76 1.2-1.13 1.96-.81.37.15.66.44.81.81.15.37.15.78 0 1.15-.32.76-1.19 1.12-1.95.81l-.01-.01h-.01a1.488 1.488 0 0 1-.8-1.95zm-5.59-.16c-.11-.25.02-.55.27-.65.06-.03.13-.04.19-.04a.499.499 0 0 1 .19.96c-.25.1-.54-.02-.65-.27zm-2.91 6.45c-.37.15-.78.15-1.15 0-.37-.15-.66-.44-.81-.81a1.504 1.504 0 0 1 1.96-1.97c.76.31 1.12 1.19.81 1.95 0 0 0 .01-.01.01v.01c-.14.37-.43.66-.8.81zm-1.3 5.58c-.26.1-.55-.02-.65-.27a.5.5 0 0 1 .27-.65c.06-.03.13-.04.19-.04s.13.01.19.04c.12.05.22.15.27.27.1.25-.02.54-.27.65zm6.44 4.06c-.15.37-.44.66-.81.81-.37.15-.78.15-1.15 0-.37-.15-.66-.44-.81-.81s-.15-.78 0-1.15.44-.66.81-.81c.19-.08.38-.12.57-.12.19 0 .38.04.56.11 0 0 .01 0 .01.01h.01c.77.32 1.13 1.2.81 1.96zm5.59.16a.5.5 0 0 1-.27.65.5.5 0 0 1-.65-.27c-.11-.25.02-.55.27-.65.06-.03.13-.04.19-.04.19 0 .38.12.46.31zm-2.76-5.35c-.74.31-1.56.31-2.3 0s-1.32-.88-1.62-1.62-.31-1.56 0-2.3.88-1.32 1.62-1.62c.37-.15.76-.23 1.15-.23.39 0 .78.08 1.15.23.74.31 1.32.88 1.62 1.62s.31 1.56 0 2.3c-.31.73-.88 1.31-1.62 1.62zm7.63.86c-.32.76-1.2 1.13-1.96.81a1.502 1.502 0 0 1-.81-1.95l.01-.01v-.01c.15-.37.44-.65.81-.8a1.423 1.423 0 0 1 1.14 0c.37.15.66.44.81.81.15.37.15.78 0 1.15zM30.63 35.25c-.62-.26-1.3-.26-1.91 0-.46.19-.84.51-1.12.91l-1.48-.61c.19-.69.19-1.41 0-2.1l3.37-1.4c.15.16.32.3.53.39.19.08.38.11.57.11.19 0 .39-.04.57-.12.37-.15.66-.44.81-.81s.15-.78 0-1.15c-.32-.76-1.2-1.13-1.96-.81-.6.25-.95.85-.92 1.46l-3.36 1.39c-.35-.62-.86-1.13-1.48-1.49l.61-1.48c.16.03.31.05.47.05.98 0 1.92-.58 2.31-1.54.26-.62.26-1.3 0-1.91-.26-.62-.74-1.1-1.35-1.35-.62-.26-1.3-.26-1.91 0-.62.25-1.1.74-1.35 1.35-.46 1.12-.05 2.38.91 3.03l-.61 1.48a3.94 3.94 0 0 0-2.1 0l-1.39-3.36c.46-.41.63-1.08.38-1.68-.15-.37-.44-.66-.81-.81-.37-.15-.78-.15-1.15 0-.37.15-.66.44-.81.81s-.15.78 0 1.15c.24.58.8.93 1.39.93.02 0 .05-.01.07-.01l1.39 3.36c-.62.35-1.13.86-1.48 1.48l-1.48-.61c.22-1.14-.38-2.32-1.5-2.79-1.27-.53-2.74.08-3.27 1.35-.26.62-.26 1.3 0 1.91.26.62.74 1.1 1.35 1.35.31.13.63.19.96.19s.65-.06.96-.19c.46-.19.84-.51 1.11-.91l1.48.61a3.94 3.94 0 0 0 0 2.1l-3.37 1.4c-.15-.16-.32-.3-.53-.39-.37-.15-.78-.15-1.15 0-.37.15-.66.44-.81.81a1.504 1.504 0 0 0 1.96 1.97c.6-.25.95-.85.92-1.46l3.36-1.39c.35.62.86 1.13 1.48 1.48l-.61 1.48c-1.14-.22-2.32.38-2.79 1.5-.26.62-.26 1.3 0 1.91.26.62.74 1.1 1.35 1.35a2.493 2.493 0 0 0 3.26-1.35c.46-1.12.05-2.38-.91-3.03l.61-1.48c.35.1.7.16 1.05.16s.7-.07 1.05-.16l1.39 3.36c-.46.41-.63 1.08-.39 1.68a1.504 1.504 0 0 0 1.96.82c.76-.32 1.13-1.2.81-1.96-.25-.6-.85-.95-1.46-.92l-1.39-3.36c.62-.35 1.13-.86 1.48-1.48l1.48.61a2.496 2.496 0 0 0 2.45 2.97c.98 0 1.91-.58 2.31-1.54.26-.62.26-1.3 0-1.91-.21-.61-.69-1.09-1.31-1.35zm-.22-4.66c.26-.1.55.02.65.27a.5.5 0 0 1-.27.65.5.5 0 0 1-.65-.27c-.11-.25.01-.54.27-.65zm-6.45-4.05c.15-.37.44-.66.81-.81a1.423 1.423 0 0 1 1.14 0c.37.15.66.44.81.81s.15.78 0 1.15-.44.66-.81.81a1.5 1.5 0 0 1-1.14 0s-.01 0-.01-.01h-.01a1.492 1.492 0 0 1-.79-1.95zm-5.58-.16a.5.5 0 0 1 .46-.69.51.51 0 0 1 .46.31c.11.25-.02.55-.27.65-.26.1-.55-.02-.65-.27zm-2.91 6.44c-.37.15-.78.15-1.15 0-.37-.15-.66-.44-.81-.81a1.504 1.504 0 0 1 1.96-1.97c.76.32 1.12 1.19.81 1.95 0 0 0 .01-.01.01v.01c-.15.38-.44.66-.8.81zm-1.31 5.59c-.25.1-.55-.02-.65-.27a.5.5 0 0 1 .27-.65c.06-.03.13-.04.19-.04s.13.01.19.04a.5.5 0 0 1 0 .92zm6.45 4.06a1.5 1.5 0 0 1-2.77 0c-.15-.37-.15-.78 0-1.15.32-.76 1.19-1.12 1.95-.82l.01.01h.01c.75.32 1.11 1.2.8 1.96zm5.58.15a.497.497 0 1 1-.92.38c-.11-.25.02-.55.27-.65.06-.03.13-.04.19-.04.19.01.38.12.46.31zm-2.76-5.35c-.74.31-1.56.31-2.3 0-.74-.31-1.32-.88-1.62-1.62s-.31-1.56 0-2.3c.31-.74.88-1.32 1.62-1.62.37-.15.76-.23 1.15-.23s.78.08 1.15.23c.74.31 1.32.88 1.62 1.62s.31 1.56 0 2.3-.88 1.32-1.62 1.62zm7.63.87c-.32.76-1.2 1.13-1.96.81a1.502 1.502 0 0 1-.81-1.95l.01-.01v-.01c.15-.37.44-.65.81-.8a1.423 1.423 0 0 1 1.14 0c.37.15.66.44.81.81.15.37.15.78 0 1.15z"></path>
</svg>
