<?xml version="1.0" encoding="UTF-8" standalone="no"?>
<!-- Created with Inkscape (http://www.inkscape.org/) -->

<svg
   width="150mm"
   height="100mm"
   viewBox="0 0 150 100"
   version="1.1"
   id="svg1"
   xml:space="preserve"
   inkscape:version="1.4 (86a8ad7, 2024-10-11)"
   sodipodi:docname="bignsmall_big_start.svg"
   xmlns:inkscape="http://www.inkscape.org/namespaces/inkscape"
   xmlns:sodipodi="http://sodipodi.sourceforge.net/DTD/sodipodi-0.dtd"
   xmlns="http://www.w3.org/2000/svg"
   xmlns:svg="http://www.w3.org/2000/svg"><sodipodi:namedview
     id="namedview1"
     pagecolor="#505050"
     bordercolor="#eeeeee"
     borderopacity="1"
     inkscape:showpageshadow="0"
     inkscape:pageopacity="0"
     inkscape:pagecheckerboard="0"
     inkscape:deskcolor="#505050"
     inkscape:document-units="mm"
     showgrid="true"
     inkscape:zoom="1.0216132"
     inkscape:cx="289.73784"
     inkscape:cy="152.69967"
     inkscape:window-width="1440"
     inkscape:window-height="830"
     inkscape:window-x="-6"
     inkscape:window-y="-6"
     inkscape:window-maximized="1"
     inkscape:current-layer="g24"><inkscape:grid
       id="grid6"
       units="mm"
       originx="0"
       originy="0"
       spacingx="10"
       spacingy="10"
       empcolor="#0099e5"
       empopacity="0.30196078"
       color="#0099e5"
       opacity="0.14901961"
       empspacing="5"
       enabled="true"
       visible="true"
       dotted="false"
       snapvisiblegridlinesonly="false" /></sodipodi:namedview><defs
     id="defs1"><marker
       style="overflow:visible"
       id="DartArrow"
       refX="0"
       refY="0"
       orient="auto-start-reverse"
       inkscape:stockid="Dart arrow"
       markerWidth="1"
       markerHeight="1"
       viewBox="0 0 1 1"
       inkscape:isstock="true"
       inkscape:collect="always"
       preserveAspectRatio="xMidYMid"><path
         style="fill:context-stroke;fill-rule:evenodd;stroke:none"
         d="M 0,0 5,-5 -12.5,0 5,5 Z"
         transform="scale(-0.5)"
         id="path6" /></marker><rect
       x="49.439517"
       y="358.74733"
       width="59.392333"
       height="19.205428"
       id="rect7" /></defs><g
     inkscape:label="Слой 1"
     inkscape:groupmode="layer"
     id="layer1"><text
       xml:space="preserve"
       transform="scale(0.26458333)"
       id="text7"
       style="font-style:normal;font-variant:normal;font-weight:bold;font-stretch:normal;font-size:12px;font-family:Arial;-inkscape-font-specification:'Arial, Bold';font-variant-ligatures:normal;font-variant-caps:normal;font-variant-numeric:normal;font-variant-east-asian:normal;text-align:start;writing-mode:lr-tb;direction:ltr;white-space:pre;shape-inside:url(#rect7);display:inline;fill:#000000" /><g
       id="g23"
       transform="translate(5.7252222,-0.10941015)"><g
         id="g24"
         transform="matrix(0.9889658,0,0,0.97942578,-4.1804376,1.0309624)"><path
           d="m 79.251474,16.736476 1.154837,-0.861026 c 0.221652,0.238352 0.46192,0.445832 0.73004,0.607026 0.26811,0.161183 0.56876,0.268383 0.878689,0.360138 l -0.496074,3.232733 c -0.542858,0.104504 -0.984339,0.543176 -1.071555,1.121273 -0.05697,0.354589 0.03046,0.711898 0.244219,0.998043 a 1.2719245,1.281643 33.440671 0 0 0.87331,0.52503 c 0.73087,0.103101 1.423115,-0.405489 1.531039,-1.139279 0.0872,-0.578104 -0.209832,-1.12449 -0.691064,-1.382279 l 0.496079,-3.232736 c 0.637538,0.0155 1.265164,-0.143149 1.821309,-0.460339 l 0.850393,1.152287 a 2.2310075,2.248054 33.44064 0 0 0.497117,3.420004 c 0.75075,0.451342 1.732618,0.432132 2.485024,-0.124379 0.487192,-0.358648 0.803094,-0.883336 0.887302,-1.473754 0.08885,-0.59813 -0.05589,-1.189564 -0.407045,-1.663402 -0.354171,-0.486153 -0.875093,-0.79933 -1.46317,-0.879658 -0.440651,-0.06526 -0.88042,0.0066 -1.280737,0.186332 l -0.850394,-1.152293 c 0.466094,-0.444902 0.800575,-1.000452 0.975567,-1.620357 l 3.232004,0.471831 c 0.04066,0.192515 0.105864,0.378855 0.224966,0.544962 0.108334,0.149258 0.240005,0.259882 0.385557,0.347386 0.145511,0.08752 0.31733,0.148763 0.492402,0.169918 0.353132,0.05467 0.71,-0.03554 0.996797,-0.251944 0.286797,-0.216418 0.477264,-0.53276 0.534233,-0.887332 0.107913,-0.733802 -0.394328,-1.424576 -1.125188,-1.527684 -0.575786,-0.08342 -1.122628,0.218331 -1.383028,0.702821 L 86.55437,13.444873 c 0.01991,-0.639569 -0.133898,-1.267976 -0.441576,-1.831297 l 1.154826,-0.861022 c 0.108593,0.09675 0.214254,0.181343 0.336822,0.255038 0.75074,0.451341 1.740285,0.436737 2.485014,-0.124381 0.487193,-0.358649 0.803094,-0.883337 0.887292,-1.4737476 0.08886,-0.5981361 -0.05589,-1.1895687 -0.407025,-1.6634048 -0.354181,-0.4861549 -0.875102,-0.7993328 -1.46318,-0.8796608 -0.591101,-0.09263 -1.186441,0.064375 -1.661324,0.4199105 -0.872691,0.6523337 -1.143944,1.813373 -0.710483,2.7570407 L 85.5799,10.904375 A 3.5217026,3.5486109 33.440649 0 0 83.971158,9.9372166 L 84.470254,6.7168075 C 85.013108,6.6123087 85.454582,6.1736334 85.549472,5.6001383 85.603451,5.2332496 85.516013,4.8759223 85.302234,4.5897772 85.088493,4.3036073 84.774389,4.1148013 84.421259,4.0601417 84.068118,4.0054737 83.71126,4.0956787 83.424463,4.3120869 83.137657,4.5285093 82.947189,4.8448493 82.89023,5.199421 c -0.0856,0.5580624 0.180856,1.0860262 0.632757,1.3577712 0.01531,0.00921 0.04287,0.015432 0.05816,0.024677 L 83.085058,9.8146143 C 82.447521,9.7991163 81.819898,9.957762 81.263756,10.274953 L 80.413445,9.1225208 c 0.698131,-0.7782964 0.786664,-1.9651195 0.147013,-2.843586 A 2.2435212,2.2606634 33.440676 0 0 77.431299,5.8268983 c -0.487195,0.3586495 -0.803092,0.8833363 -0.8873,1.4737507 -0.08885,0.5981297 0.05588,1.1895661 0.407035,1.6634028 0.177081,0.2430871 0.394356,0.436752 0.647155,0.5887327 0.252792,0.1519804 0.525828,0.253046 0.823683,0.2955305 0.440651,0.065257 0.880412,-0.00664 1.273073,-0.1909357 l 0.850387,1.1522947 a 3.5217026,3.5486109 33.440649 0 0 -0.975581,1.62036 L 76.33775,11.958203 c -0.04059,-0.192529 -0.105793,-0.378846 -0.224873,-0.545 -0.213773,-0.286155 -0.527841,-0.474978 -0.88097,-0.529638 a 1.3523695,1.3627025 33.440657 0 0 -1.535679,1.146997 1.3443251,1.3545967 33.440645 0 0 1.120545,1.535397 c 0.575782,0.08342 1.122627,-0.218332 1.383025,-0.702821 l 3.219694,0.474941 c -0.01988,0.639563 0.133906,1.267964 0.446267,1.823569 l -1.154836,0.861025 c -0.771105,-0.694789 -1.953794,-0.775274 -2.834138,-0.12755 -0.487195,0.358649 -0.803091,0.883332 -0.887299,1.473751 -0.08885,0.59813 0.05588,1.189566 0.407033,1.663401 a 2.2283261,2.2453521 33.440638 0 0 3.124507,0.45975 c 0.892655,-0.650838 1.163902,-1.811881 0.73045,-2.755546 z m 2.96621,4.725756 A 0.44485684,0.44825587 33.44067 1 1 81.336376,21.33173 c 0.03188,-0.243569 0.270848,-0.415155 0.508802,-0.377184 0.05981,0.0046 0.118174,0.02902 0.164126,0.05665 0.140987,0.09508 0.235358,0.267603 0.208374,0.451048 z m 5.22097,-3.628872 a 1.2719245,1.281643 33.440671 0 1 0.873307,0.525032 c 0.213731,0.286171 0.301181,0.643473 0.244223,0.998041 -0.05701,0.354592 -0.247486,0.670918 -0.534242,0.887341 -0.598206,0.439026 -1.444214,0.319233 -1.877763,-0.277697 a 1.3425373,1.3527953 33.440682 0 1 0.285368,-1.877662 l 0.01248,-0.0032 0.0043,-0.0076 c 0.286767,-0.216404 0.638995,-0.298877 0.992136,-0.244212 z m 3.592729,-3.714504 c 0.245629,0.04258 0.412015,0.268769 0.372504,0.507699 a 0.44691658,0.45033135 33.440656 0 1 -0.5088,0.377178 0.44691658,0.45033135 33.440656 0 1 -0.372514,-0.507696 c 0.03957,-0.238979 0.266205,-0.407442 0.508809,-0.377185 z M 87.979397,8.0279165 c 0.286795,-0.2164181 0.643676,-0.3066137 0.996796,-0.2519414 0.353129,0.054674 0.667217,0.2434836 0.880975,0.5296362 0.213731,0.2861698 0.301182,0.6434712 0.244213,0.9980428 -0.05701,0.3545919 -0.247485,0.6709173 -0.534232,0.8873349 -0.286816,0.216424 -0.643676,0.306613 -0.996797,0.251946 A 1.3407498,1.350994 33.44062 0 1 87.697045,9.9179006 c 0,0 -0.0074,-0.00451 -0.0031,-0.012095 l -0.0075,-0.00486 a 1.3300238,1.3401861 33.440622 0 1 0.292971,-1.8730303 z m -4.20796,-2.6979408 a 0.44691658,0.45033135 33.440656 0 1 0.672929,-0.3205519 0.4558549,0.45933797 33.440658 0 1 0.208411,0.4510327 C 84.620847,5.7040301 84.381929,5.8756049 84.143978,5.8376392 83.905985,5.7996612 83.73961,5.5734782 83.771464,5.3299435 Z m -5.220962,3.628862 C 78.197334,8.9041703 77.883261,8.7153552 77.669504,8.4292011 77.455732,8.1430466 77.368306,7.7857342 77.425285,7.4311611 a 1.3443251,1.3545967 33.440645 0 1 2.41665,-0.6173625 c 0.428906,0.6046416 0.308184,1.4463443 -0.282358,1.8899849 0,0 -0.0046,0.00764 -0.01234,0.00291 l -0.0047,0.00783 C 79.255772,8.9309245 78.903536,9.0134 78.550412,8.9587336 Z m -3.592734,3.7145093 c -0.245629,-0.04258 -0.412024,-0.268767 -0.372507,-0.507701 a 0.44691658,0.45033135 33.440656 0 1 0.508804,-0.377183 c 0.05981,0.0046 0.118169,0.02903 0.164125,0.05665 0.04599,0.02765 0.09488,0.0677 0.126973,0.118353 0.06871,0.09384 0.09884,0.217073 0.08141,0.332692 -0.03954,0.23897 -0.266201,0.407437 -0.508803,0.377184 z m 5.380592,0.334353 a 2.645746,2.6659614 33.44066 0 1 1.068476,-1.774673 c 0.581242,-0.42821 1.287346,-0.613214 1.993596,-0.503887 0.353139,0.05468 0.689057,0.172541 0.98783,0.352149 0.298768,0.179618 0.560353,0.420973 0.77413,0.707092 0.422875,0.580004 0.602382,1.286942 0.488445,1.996082 -0.113967,0.709142 -0.487236,1.346463 -1.068474,1.774674 -0.581252,0.428214 -1.287353,0.613227 -1.993604,0.503891 -0.710894,-0.101616 -1.339064,-0.479268 -1.761939,-1.059275 A 2.645746,2.6659614 33.44066 0 1 80.338351,13.00767 Z m -2.333249,5.764297 a 1.3407498,1.350994 33.44062 0 1 -2.121989,-1.275736 c 0.05698,-0.354589 0.247484,-0.670914 0.534236,-0.887335 0.598212,-0.439033 1.431916,-0.31613 1.874757,0.265369 l 0.0028,0.01232 0.0077,0.0047 c 0.213772,0.286154 0.293532,0.638863 0.236559,0.993437 -0.04933,0.359188 -0.239789,0.67553 -0.534235,0.887337 z m 26.293386,10.101215 c -0.35417,-0.486155 -0.87509,-0.799332 -1.46317,-0.879658 -0.44065,-0.06526 -0.88041,0.0066 -1.27308,0.190936 l -0.85038,-1.152295 c 0.46608,-0.444895 0.80057,-1.000444 0.97556,-1.620352 l 3.232,0.471829 c 0.0407,0.192517 0.10576,0.378845 0.22496,0.544961 0.10843,0.149218 0.24003,0.259881 0.38556,0.347385 0.14552,0.08752 0.31734,0.148757 0.49241,0.16993 0.35314,0.05467 0.70999,-0.03554 0.99679,-0.251947 0.28681,-0.216423 0.47727,-0.532761 0.53425,-0.887337 0.1079,-0.7338 -0.39435,-1.424569 -1.1252,-1.527683 -0.57578,-0.08342 -1.12263,0.218334 -1.38303,0.702825 l -3.21969,-0.474945 c 0.0199,-0.639579 -0.13389,-1.267974 -0.44623,-1.823581 l 1.15484,-0.861027 c 0.1087,0.09671 0.21424,0.181349 0.33682,0.255035 0.75074,0.451345 1.74027,0.436743 2.48502,-0.124376 0.48719,-0.35865 0.80308,-0.883335 0.88729,-1.473749 0.0888,-0.59813 -0.0559,-1.189563 -0.40704,-1.663407 -0.72668,-0.99385 -2.13617,-1.200173 -3.13216,-0.464351 -0.87269,0.652332 -1.14394,1.813371 -0.71048,2.757042 l -1.15484,0.861024 a 3.5217026,3.5486109 33.440649 0 0 -1.608728,-0.967163 l 0.49607,-3.232735 c 0.544488,-0.124536 0.988978,-0.550889 1.076198,-1.128988 0.10791,-0.733801 -0.39432,-1.424567 -1.125178,-1.527681 a 1.3443251,1.3545967 33.440645 0 0 -0.89826,2.497035 c 0.0153,0.0092 0.0429,0.01543 0.0581,0.02466 l -0.49607,3.232732 c -0.63761,-0.01544 -1.265215,0.143182 -1.821351,0.460381 L 95.66909,20.175423 c 0.698135,-0.778298 0.786617,-1.965138 0.14237,-2.835874 -0.734352,-0.998453 -2.136188,-1.200176 -3.132171,-0.464354 -0.487193,0.358648 -0.803084,0.883331 -0.887292,1.473749 -0.08885,0.598128 0.05589,1.189563 0.407035,1.663404 0.177038,0.243104 0.394355,0.436747 0.647148,0.588731 0.252792,0.151981 0.525802,0.25309 0.823688,0.295533 0.440646,0.06525 0.880413,-0.0066 1.28073,-0.186331 l 0.850391,1.152292 a 3.5217026,3.5486109 33.440649 0 0 -0.975566,1.620355 l -3.232005,-0.471831 c -0.04066,-0.192515 -0.105762,-0.378846 -0.224965,-0.544961 -0.213731,-0.286171 -0.527836,-0.474977 -0.880955,-0.529641 -0.353151,-0.05466 -0.71001,0.03554 -0.996806,0.251948 a 1.3443251,1.3545967 33.440645 0 0 0.586303,2.422733 c 0.575786,0.08342 1.122637,-0.218335 1.383028,-0.702822 l 3.219691,0.474941 c -0.0199,0.639579 0.133902,1.26798 0.441594,1.831297 l -1.154837,0.861025 c -0.771117,-0.694788 -1.953797,-0.775276 -2.826484,-0.122943 -0.487193,0.358651 -0.803084,0.883334 -0.887292,1.47375 -0.08885,0.598131 0.05589,1.189566 0.407038,1.663405 0.177037,0.243103 0.394352,0.436747 0.647149,0.588734 0.252803,0.151973 0.525823,0.253033 0.823684,0.29553 0.591104,0.09264 1.186427,-0.06437 1.66132,-0.419907 0.872691,-0.652335 1.143938,-1.813375 0.710484,-2.757042 l 1.15492,-0.861164 c 0.221655,0.23835 0.46192,0.445835 0.730053,0.607028 0.268093,0.161187 0.56875,0.268379 0.878669,0.360141 l -0.496072,3.232734 c -0.542863,0.104503 -0.984336,0.543175 -1.071543,1.121272 -0.05705,0.354577 0.03043,0.711902 0.24421,0.998042 a 1.2719245,1.281643 33.440671 0 0 0.873318,0.52503 c 0.353133,0.05468 0.709997,-0.03554 0.996797,-0.251945 0.2868,-0.216417 0.47727,-0.532762 0.53423,-0.887333 0.0872,-0.578105 -0.20983,-1.124489 -0.69106,-1.382274 l 0.49606,-3.232739 c 0.63756,0.0155 1.26517,-0.143146 1.82132,-0.460336 l 0.850388,1.15229 c -0.69813,0.778293 -0.78671,1.965097 -0.14701,2.843582 0.17704,0.243108 0.40202,0.441356 0.63949,0.584128 0.75074,0.451345 1.73262,0.432134 2.48502,-0.124374 0.48719,-0.35865 0.80309,-0.883339 0.8873,-1.473756 a 2.1273228,2.1435771 33.440615 0 0 -0.3901,-1.674229 z m 1.98865,-3.701562 c 0.24563,0.04258 0.41202,0.268763 0.3725,0.5077 a 0.44691658,0.45033135 33.440656 0 1 -0.5088,0.377182 0.44691658,0.45033135 33.440656 0 1 -0.3725,-0.507697 c 0.0396,-0.23898 0.27085,-0.415152 0.5088,-0.377185 z m -3.04736,-6.098659 c 0.59821,-0.439029 1.44422,-0.31924 1.87777,0.277697 0.21372,0.286168 0.30119,0.643471 0.24422,0.99804 -0.057,0.354575 -0.24786,0.670773 -0.53424,0.887335 -0.59821,0.439034 -1.43191,0.316129 -1.8701,-0.273088 l -0.003,-0.0124 -0.008,-0.005 a 1.3300238,1.3401861 33.440622 0 1 0.29296,-1.873011 z m -4.207958,-2.697943 c 0.032,-0.243558 0.27086,-0.41515 0.50881,-0.377183 0.0598,0.0046 0.11817,0.02901 0.16412,0.05665 a 0.44602271,0.44943065 33.440682 0 1 -0.30089,0.828063 c -0.23798,-0.03798 -0.40436,-0.264158 -0.3725,-0.507704 z m -5.225599,3.636591 c -0.353139,-0.05467 -0.667217,-0.243483 -0.880975,-0.529634 -0.213732,-0.286172 -0.301192,-0.643473 -0.244214,-0.998047 A 1.3443251,1.3545967 33.440645 0 1 95.097659,17.8666 c 0.438196,0.589216 0.305172,1.434019 -0.285365,1.877659 0,0 -0.004,0.0078 -0.0125,0.0032 l -0.0039,0.0077 c -0.27915,0.221032 -0.63602,0.311214 -0.989149,0.256555 z m -3.588086,3.706792 c -0.245629,-0.04258 -0.412034,-0.268755 -0.372514,-0.507699 a 0.44691658,0.45033135 33.440656 0 1 0.5088,-0.377186 c 0.05986,0.0046 0.118183,0.02903 0.164129,0.05665 0.04599,0.02765 0.09509,0.06743 0.127009,0.118335 0.06876,0.09384 0.0993,0.216875 0.08139,0.332698 -0.03958,0.238973 -0.266206,0.407433 -0.508809,0.37719 z m 3.047342,6.098647 c -0.286804,0.216422 -0.643678,0.306613 -0.996793,0.251946 -0.35315,-0.05466 -0.667222,-0.243485 -0.880974,-0.529635 -0.213733,-0.286173 -0.301191,-0.64347 -0.244222,-0.998042 0.05695,-0.354613 0.247859,-0.670772 0.534237,-0.887341 0.286802,-0.216416 0.643667,-0.30661 0.996802,-0.25194 0.182701,0.02577 0.346842,0.08242 0.492401,0.169917 0.145509,0.08752 0.272518,0.205866 0.377888,0.342784 0,0 0.0078,0.005 0.0029,0.01239 l 0.0079,0.0047 c 0.441213,0.601546 0.308182,1.446338 -0.290012,1.885374 z m 4.207963,2.697942 a 0.44691658,0.45033135 33.440656 0 1 -0.508818,0.377182 0.44691658,0.45033135 33.440656 0 1 -0.372508,-0.507694 c 0.03197,-0.24356 0.270853,-0.41516 0.508806,-0.377186 0.0598,0.0046 0.118172,0.02901 0.164129,0.05665 0.145511,0.08752 0.235351,0.267599 0.208411,0.451036 z m 0.37102,-5.399174 c -0.710898,-0.101616 -1.339062,-0.479268 -1.761945,-1.059272 -0.422863,-0.58 -0.602365,-1.286938 -0.488428,-1.996081 0.113968,-0.709139 0.487187,-1.346475 1.068454,-1.774674 0.581256,-0.428212 1.287359,-0.613225 1.993609,-0.503888 0.35314,0.05467 0.68904,0.172568 0.98781,0.352186 0.29877,0.179617 0.560358,0.420965 0.774118,0.707088 0.42289,0.580008 0.60238,1.286942 0.48845,1.996089 -0.11394,0.709152 -0.48719,1.346474 -1.068468,1.774667 -0.57661,0.420498 -1.28271,0.605501 -1.9936,0.503888 z m 5.445528,4.177602 c -0.5982,0.439029 -1.44422,0.319238 -1.87777,-0.277693 a 1.3425373,1.3527953 33.440682 0 1 0.28538,-1.877665 l 0.0121,-0.0033 0.004,-0.0077 c 0.28681,-0.21642 0.63903,-0.2989 0.99215,-0.244227 a 1.2719245,1.281643 33.440671 0 1 0.87331,0.525033 c 0.21373,0.286169 0.30119,0.643469 0.24422,0.998041 -0.057,0.354577 -0.24786,0.670773 -0.53424,0.887334 z m -17.276825,6.77417 c -0.354181,-0.486151 -0.875103,-0.799331 -1.46317,-0.879657 -0.440657,-0.06526 -0.880419,0.0066 -1.280739,0.186333 L 82.418843,36.222 c 0.466094,-0.444901 0.800572,-1.000449 0.975562,-1.620353 l 3.23201,0.471829 c 0.04056,0.192535 0.105765,0.378876 0.224868,0.545001 0.108335,0.149254 0.240007,0.259882 0.385557,0.347386 0.145552,0.0875 0.31734,0.148766 0.492402,0.169927 0.353138,0.05467 0.709996,-0.03554 0.996795,-0.251948 0.286805,-0.216421 0.477265,-0.53276 0.534235,-0.887335 0.107911,-0.733797 -0.394329,-1.424568 -1.12519,-1.527678 -0.575775,-0.08342 -1.122627,0.218331 -1.383027,0.702822 L 83.532359,33.69671 c 0.01992,-0.639577 -0.133866,-1.267983 -0.441582,-1.8313 l 1.154835,-0.861025 c 0.108691,0.09672 0.214256,0.181344 0.336822,0.255038 0.75074,0.451343 1.740285,0.43674 2.485024,-0.124378 0.487193,-0.35865 0.803085,-0.883337 0.887292,-1.473747 0.08885,-0.598134 -0.05589,-1.189569 -0.407035,-1.663407 -0.354181,-0.486156 -0.875102,-0.799331 -1.463179,-0.879657 -0.591102,-0.09263 -1.186442,0.06437 -1.661335,0.419909 -0.872683,0.652331 -1.143935,1.81337 -0.710478,2.757039 l -1.154839,0.861028 a 3.5217026,3.5486109 33.440649 0 0 -1.608727,-0.967163 l 0.496079,-3.232734 c 0.542855,-0.104503 0.984334,-0.543177 1.071551,-1.121273 0.05697,-0.354589 -0.03045,-0.711897 -0.244219,-0.998042 -0.213772,-0.286156 -0.527842,-0.474977 -0.88097,-0.529638 -0.353139,-0.05467 -0.710004,0.03554 -0.996801,0.251946 -0.286804,0.21642 -0.477265,0.532759 -0.534234,0.887332 -0.08559,0.558062 0.180817,1.08603 0.632785,1.357758 0.01534,0.0092 0.04301,0.01521 0.05832,0.02442 l -0.496075,3.232736 c -0.637592,-0.01545 -1.265202,0.143171 -1.821344,0.460371 l -0.850482,-1.15214 c 0.698129,-0.778295 0.786661,-1.965115 0.147014,-2.843586 -0.726687,-0.993849 -2.136177,-1.20018 -3.132168,-0.464353 -0.487192,0.358645 -0.80309,0.883333 -0.887297,1.473748 -0.08885,0.598131 0.05588,1.189564 0.407034,1.663402 0.177081,0.243087 0.394357,0.43675 0.647156,0.588733 0.252792,0.151981 0.525799,0.253089 0.823682,0.29553 0.440653,0.06526 0.880413,-0.0066 1.273072,-0.190936 l 0.850393,1.152294 a 3.5217026,3.5486109 33.440649 0 0 -0.975563,1.620352 l -3.232001,-0.471828 c -0.04059,-0.192533 -0.105793,-0.378849 -0.224872,-0.545002 -0.213765,-0.28616 -0.527842,-0.474977 -0.880971,-0.529639 -0.35314,-0.05467 -0.710005,0.03554 -0.996798,0.251948 a 1.3443251,1.3545967 33.440645 0 0 0.586309,2.42273 c 0.575783,0.08342 1.122629,-0.21833 1.383026,-0.702821 l 3.219693,0.474944 c -0.01991,0.639576 0.133866,1.267979 0.446232,1.823579 l -1.154838,0.861027 c -0.771105,-0.694789 -1.953789,-0.775283 -2.834137,-0.127549 -0.487194,0.358647 -0.803092,0.883333 -0.887298,1.473749 -0.08885,0.598132 0.05587,1.189567 0.407033,1.663401 a 2.2283261,2.2453521 33.440638 0 0 3.124508,0.459752 c 0.872685,-0.652333 1.143937,-1.813372 0.710482,-2.757044 l 1.154836,-0.861024 c 0.22165,0.238351 0.461918,0.445832 0.730039,0.607026 0.268112,0.161184 0.568765,0.268373 0.878689,0.360138 l -0.496075,3.232735 c -0.542856,0.104502 -0.984339,0.543174 -1.079216,1.116665 a 1.3443251,1.3545967 33.440645 0 0 1.120549,1.535396 c 0.730868,0.103098 1.423112,-0.405491 1.531031,-1.139281 0.0872,-0.578103 -0.209826,-1.124488 -0.69106,-1.38228 l 0.496078,-3.232731 c 0.637543,0.0155 1.265164,-0.143149 1.821306,-0.460342 l 0.850394,1.152291 a 2.2310075,2.248054 33.44064 0 0 0.497124,3.419997 c 0.750743,0.451343 1.732621,0.432134 2.485012,-0.124377 0.487203,-0.35865 0.803094,-0.883335 0.887302,-1.47375 0.12251,-0.567382 -0.02217,-1.158825 -0.376392,-1.644979 z m 1.996279,-3.696962 c 0.245628,0.04258 0.412034,0.268758 0.372513,0.5077 a 0.44691658,0.45033135 33.440656 0 1 -0.508799,0.37718 0.44691658,0.45033135 33.440656 0 1 -0.372505,-0.507699 c 0.03184,-0.243564 0.258625,-0.411991 0.5088,-0.377184 z m -3.059644,-6.09554 c 0.286805,-0.216421 0.643676,-0.306613 0.996796,-0.251943 a 1.2719245,1.281643 33.440671 0 1 0.873307,0.525032 c 0.21378,0.286153 0.301201,0.643464 0.244223,0.99804 -0.05701,0.354592 -0.24739,0.670949 -0.534232,0.887337 -0.286806,0.216422 -0.643676,0.306612 -0.996797,0.251943 a 1.3407498,1.350994 33.44062 0 1 -0.873318,-0.525032 c 0,0 -0.0074,-0.0047 -0.0031,-0.01225 l -0.0074,-0.0047 a 1.3335991,1.3437888 33.44065 0 1 0.30109,-1.868396 z m -4.200298,-2.693335 a 0.44691658,0.45033135 33.440656 0 1 0.672929,-0.320549 0.4558549,0.45933797 33.440658 0 1 0.208385,0.451047 c -0.03188,0.24357 -0.270847,0.415155 -0.508803,0.377184 -0.24563,-0.04258 -0.412026,-0.268767 -0.372505,-0.507698 z M 75.528524,29.21064 C 75.175386,29.155973 74.86131,28.967157 74.647558,28.681005 74.433785,28.394849 74.34636,28.037538 74.403334,27.682962 a 1.3443251,1.3545967 33.440645 0 1 2.416648,-0.617359 c 0.433545,0.596943 0.305171,1.434021 -0.285367,1.877661 0,0 -0.0045,0.0076 -0.01231,0.0029 l -0.0047,0.0077 c -0.291407,0.224113 -0.643648,0.30659 -0.989112,0.256531 z m -3.600393,3.709901 C 71.690143,32.882561 71.5161,32.651782 71.555625,32.412842 a 0.44691658,0.45033135 33.440656 0 1 0.508801,-0.37718 c 0.05985,0.0046 0.118174,0.02902 0.164125,0.05665 0.04599,0.02765 0.09488,0.06771 0.126968,0.118362 a 0.44691658,0.45033135 33.440656 0 1 -0.427386,0.709865 z m 3.055006,6.103256 a 1.3407498,1.350994 33.44062 0 1 -2.121989,-1.275736 c 0.05698,-0.354589 0.247483,-0.670913 0.534238,-0.887335 0.598209,-0.43903 1.431911,-0.31613 1.87475,0.265369 l 0.0032,0.01225 0.0077,0.0047 c 0.425886,0.592338 0.292865,1.437132 -0.297674,1.880772 z m 4.204935,2.685635 a 0.44485683,0.44825587 33.440665 1 1 -0.881307,-0.130506 c 0.03188,-0.243569 0.270857,-0.41515 0.508805,-0.377183 0.05985,0.0046 0.118174,0.02901 0.164125,0.05665 0.140987,0.09508 0.235356,0.267605 0.208375,0.451048 z m 0.371033,-5.399172 c -0.710896,-0.101619 -1.339067,-0.479269 -1.761941,-1.059275 -0.422875,-0.580003 -0.602388,-1.286943 -0.488437,-1.99609 0.113964,-0.709136 0.487225,-1.346462 1.068471,-1.77467 0.581248,-0.428212 1.287344,-0.613224 1.993596,-0.50389 0.353139,0.05467 0.689045,0.172568 0.987811,0.352185 0.298762,0.179615 0.560356,0.420969 0.77413,0.707093 0.422874,0.58 0.602396,1.286933 0.488441,1.996083 -0.113965,0.709138 -0.487226,1.346463 -1.068472,1.77467 -0.581246,0.428214 -1.287345,0.613225 -1.993595,0.503891 z m 5.440888,4.185313 c -0.598212,0.439033 -1.444221,0.31924 -1.877774,-0.277692 a 1.3425373,1.3527953 33.440682 0 1 0.285376,-1.877666 l 0.01207,-0.003 0.0047,-0.0077 c 0.286766,-0.216404 0.639,-0.298878 0.992126,-0.244215 a 1.2719245,1.281643 33.440671 0 1 0.873309,0.52503 c 0.213779,0.286157 0.301201,0.64347 0.244222,0.998046 -0.05701,0.354591 -0.24739,0.670949 -0.534232,0.887334 z"
           id="path1"
           style="stroke-width:0.897241" /><text
           xml:space="preserve"
           style="font-size:3.175px;text-align:start;writing-mode:lr-tb;direction:ltr;text-anchor:start;fill:#000000;stroke-width:0.264583"
           x="27.202238"
           y="86.713516"
           id="text6"><tspan
             sodipodi:role="line"
             id="tspan6"
             style="font-style:normal;font-variant:normal;font-weight:bold;font-stretch:normal;font-size:5.64444px;font-family:Sans;-inkscape-font-specification:'Sans, Bold';font-variant-ligatures:normal;font-variant-caps:normal;font-variant-numeric:normal;font-variant-east-asian:normal;text-align:center;text-anchor:middle;stroke-width:0.264583"
             x="27.202238"
             y="86.713516">Соседний город</tspan><tspan
             sodipodi:role="line"
             style="font-style:normal;font-variant:normal;font-weight:bold;font-stretch:normal;font-size:5.64444px;font-family:Sans;-inkscape-font-specification:'Sans, Bold';font-variant-ligatures:normal;font-variant-caps:normal;font-variant-numeric:normal;font-variant-east-asian:normal;text-align:center;text-anchor:middle;stroke-width:0.264583"
             x="27.202238"
             y="93.769066"
             id="tspan24">10000 агентов</tspan></text><text
           xml:space="preserve"
           style="font-style:normal;font-variant:normal;font-weight:bold;font-stretch:normal;font-size:5.64444px;font-family:Sans;-inkscape-font-specification:'Sans, Bold';font-variant-ligatures:normal;font-variant-caps:normal;font-variant-numeric:normal;font-variant-east-asian:normal;text-align:start;writing-mode:lr-tb;direction:ltr;text-anchor:start;fill:#000000;stroke-width:0.264583"
           x="116.47928"
           y="86.713516"
           id="text6-7"><tspan
             sodipodi:role="line"
             id="tspan6-6"
             style="font-style:normal;font-variant:normal;font-weight:bold;font-stretch:normal;font-size:5.64444px;font-family:Sans;-inkscape-font-specification:'Sans, Bold';font-variant-ligatures:normal;font-variant-caps:normal;font-variant-numeric:normal;font-variant-east-asian:normal;text-align:center;text-anchor:middle;stroke-width:0.264583"
             x="116.47928"
             y="86.713516">Город начала</tspan><tspan
             sodipodi:role="line"
             style="font-style:normal;font-variant:normal;font-weight:bold;font-stretch:normal;font-size:5.64444px;font-family:Sans;-inkscape-font-specification:'Sans, Bold';font-variant-ligatures:normal;font-variant-caps:normal;font-variant-numeric:normal;font-variant-east-asian:normal;text-align:center;text-anchor:middle;stroke-width:0.264583"
             x="116.47928"
             y="93.769066"
             id="tspan25">190000 агентов</tspan></text><path
           style="fill:#000000;fill-opacity:1;fill-rule:evenodd;stroke:#000000;stroke-width:1.49527;stroke-linecap:butt;stroke-linejoin:miter;stroke-dasharray:none;stroke-opacity:1;marker-start:url(#DartArrow)"
           d="M 59.315993,50.239343 H 90.000001"
           id="path8"
           inkscape:connector-type="polyline"
           inkscape:connector-curvature="0" /><path
           style="fill:#000000;fill-opacity:1;fill-rule:evenodd;stroke:#000000;stroke-width:1.49;stroke-linecap:butt;stroke-linejoin:miter;stroke-dasharray:none;stroke-opacity:1;marker-end:url(#DartArrow)"
           d="M 50.021131,70.239342 H 80.636925"
           id="path16"
           inkscape:connector-type="polyline"
           inkscape:connector-curvature="0" /><g
           style="fill:#000000"
           id="g1"
           transform="matrix(0.08154495,0,0,0.08233923,6.7354494,39.899346)"><g
             id="g6">
	<g
   id="g5">
		<g
   id="g4">
			<path
   d="M 496,272 V 248 L 462.416,96 H 160 V 48 h 16 V 0 H 64 V 48 H 80 V 96 H 33.584 L 0.192,246.264 0,272 H 32 V 448 H 16 v 48 H 480 V 448 H 464 V 272 Z M 80,16 h 80 V 32 H 80 Z m 64,32 V 96 H 96 V 48 Z m 0,432 H 32 V 464 H 144 Z M 48,448 V 272 h 113.528 c -0.96,5.2 -1.528,10.528 -1.528,16 v 160 z m 288,32 H 160 V 464 H 336 Z M 192,328 V 448 H 176 V 288 c 0,-39.704 32.304,-72 72,-72 39.696,0 72,32.296 72,72 V 448 H 304 V 328 Z m 96,16 V 448 H 208 V 344 Z m 46.472,-72 H 448 V 448 H 336 V 288 c 0,-5.472 -0.568,-10.8 -1.528,-16 z M 464,480 H 352 V 464 H 464 Z M 329.888,256 C 317.048,223.272 285.224,200 248,200 c -37.224,0 -69.048,23.272 -81.888,56 H 16 v -7.128 L 46.416,112 H 449.584 L 480,248.872 V 256 Z"
   id="path1-0" />
			<rect
   x="256"
   y="384"
   width="16"
   height="16"
   id="rect1" />
			<path
   d="m 64,392 h 80 V 296 H 64 Z m 48,-80 h 16 v 24 h -16 z m 0,40 h 16 v 24 H 112 Z M 80,312 h 16 v 24 H 80 Z m 0,40 h 16 v 24 H 80 Z"
   id="path2" />
			<path
   d="m 432,296 h -80 v 96 h 80 z m -48,80 h -16 v -24 h 16 z m 0,-40 h -16 v -24 h 16 z m 32,40 h -16 v -24 h 16 z m 0,-40 h -16 v -24 h 16 z"
   id="path3" />
			<path
   d="m 248,232 c -22.056,0 -40,17.944 -40,40 0,22.056 17.944,40 40,40 22.056,0 40,-17.944 40,-40 0,-22.056 -17.944,-40 -40,-40 z m 0,64 c -13.232,0 -24,-10.768 -24,-24 0,-13.232 10.768,-24 24,-24 13.232,0 24,10.768 24,24 0,13.232 -10.768,24 -24,24 z"
   id="path4" />
		</g>
	</g>
</g></g><g
           style="fill:#000000"
           id="g2"
           transform="matrix(0.09874582,0,0,0.0997079,91.493871,29.34668)"><g
             transform="translate(1,1)"
             id="g20">
	<g
   id="g19">
		<g
   id="g18">
			<path
   d="m 195.267,118.467 h 42.667 c 5.12,0 8.533,-3.413 8.533,-8.533 V 75.8 c 0,-5.12 -3.413,-8.533 -8.533,-8.533 h -42.667 c -5.12,0 -8.533,3.413 -8.533,8.533 v 34.133 c -0.001,5.12 3.413,8.534 8.533,8.534 z M 203.8,84.333 h 25.6 V 101.4 h -25.6 z"
   id="path1-9" />
			<path
   d="m 272.067,118.467 h 42.667 c 5.12,0 8.533,-3.413 8.533,-8.533 V 75.8 c 0,-5.12 -3.413,-8.533 -8.533,-8.533 h -42.667 c -5.12,0 -8.533,3.413 -8.533,8.533 v 34.133 c -10e-4,5.12 3.413,8.534 8.533,8.534 z M 280.6,84.333 h 25.6 V 101.4 h -25.6 z"
   id="path2-4" />
			<path
   d="m 195.267,186.733 h 42.667 c 5.12,0 8.533,-3.413 8.533,-8.533 v -34.133 c 0,-5.12 -3.413,-8.533 -8.533,-8.533 h -42.667 c -5.12,0 -8.533,3.413 -8.533,8.533 V 178.2 c -0.001,5.12 3.413,8.533 8.533,8.533 z M 203.8,152.6 h 25.6 v 17.067 h -25.6 z"
   id="path3-8" />
			<path
   d="m 272.067,186.733 h 42.667 c 5.12,0 8.533,-3.413 8.533,-8.533 v -34.133 c 0,-5.12 -3.413,-8.533 -8.533,-8.533 h -42.667 c -5.12,0 -8.533,3.413 -8.533,8.533 V 178.2 c -10e-4,5.12 3.413,8.533 8.533,8.533 z M 280.6,152.6 h 25.6 v 17.067 h -25.6 z"
   id="path4-8" />
			<path
   d="m 195.267,255 h 42.667 c 5.12,0 8.533,-3.413 8.533,-8.533 v -34.133 c 0,-5.12 -3.413,-8.533 -8.533,-8.533 h -42.667 c -5.12,0 -8.533,3.413 -8.533,8.533 v 34.133 c -0.001,5.12 3.413,8.533 8.533,8.533 z m 8.533,-34.133 h 25.6 v 17.067 h -25.6 z"
   id="path5" />
			<path
   d="m 272.067,255 h 42.667 c 5.12,0 8.533,-3.413 8.533,-8.533 v -34.133 c 0,-5.12 -3.413,-8.533 -8.533,-8.533 h -42.667 c -5.12,0 -8.533,3.413 -8.533,8.533 v 34.133 c -10e-4,5.12 3.413,8.533 8.533,8.533 z m 8.533,-34.133 h 25.6 v 17.067 h -25.6 z"
   id="path6-2" />
			<path
   d="m 195.267,323.267 h 42.667 c 5.12,0 8.533,-3.413 8.533,-8.533 V 280.6 c 0,-5.12 -3.413,-8.533 -8.533,-8.533 h -42.667 c -5.12,0 -8.533,3.413 -8.533,8.533 v 34.133 c -0.001,5.12 3.413,8.534 8.533,8.534 z m 8.533,-34.134 h 25.6 V 306.2 h -25.6 z"
   id="path7" />
			<path
   d="m 272.067,323.267 h 42.667 c 5.12,0 8.533,-3.413 8.533,-8.533 V 280.6 c 0,-5.12 -3.413,-8.533 -8.533,-8.533 h -42.667 c -5.12,0 -8.533,3.413 -8.533,8.533 v 34.133 c -10e-4,5.12 3.413,8.534 8.533,8.534 z m 8.533,-34.134 h 25.6 V 306.2 h -25.6 z"
   id="path8-4" />
			<path
   d="m 195.267,391.533 h 42.667 c 5.12,0 8.533,-3.413 8.533,-8.533 v -34.133 c 0,-5.12 -3.413,-8.533 -8.533,-8.533 h -42.667 c -5.12,0 -8.533,3.413 -8.533,8.533 V 383 c -0.001,5.12 3.413,8.533 8.533,8.533 z M 203.8,357.4 h 25.6 v 17.067 h -25.6 z"
   id="path9" />
			<path
   d="m 272.067,391.533 h 42.667 c 5.12,0 8.533,-3.413 8.533,-8.533 v -34.133 c 0,-5.12 -3.413,-8.533 -8.533,-8.533 h -42.667 c -5.12,0 -8.533,3.413 -8.533,8.533 V 383 c -10e-4,5.12 3.413,8.533 8.533,8.533 z M 280.6,357.4 h 25.6 v 17.067 h -25.6 z"
   id="path10" />
			<path
   d="M 92.867,135.533 H 50.2 c -5.12,0 -8.533,3.413 -8.533,8.533 V 178.2 c 0,5.12 3.413,8.533 8.533,8.533 h 42.667 c 5.12,0 8.533,-3.413 8.533,-8.533 v -34.133 c 0,-5.12 -3.413,-8.534 -8.533,-8.534 z m -8.534,34.134 h -25.6 V 152.6 h 25.6 z"
   id="path11" />
			<path
   d="M 92.867,203.8 H 50.2 c -5.12,0 -8.533,3.413 -8.533,8.533 v 34.133 c 0,5.12 3.413,8.533 8.533,8.533 h 42.667 c 5.12,0 8.533,-3.413 8.533,-8.533 v -34.133 c 0,-5.12 -3.413,-8.533 -8.533,-8.533 z m -8.534,34.133 h -25.6 v -17.067 h 25.6 z"
   id="path12" />
			<path
   d="M 92.867,272.067 H 50.2 c -5.12,0 -8.533,3.413 -8.533,8.533 v 34.133 c 0,5.12 3.413,8.533 8.533,8.533 h 42.667 c 5.12,0 8.533,-3.413 8.533,-8.533 V 280.6 c 0,-5.12 -3.413,-8.533 -8.533,-8.533 z M 84.333,306.2 h -25.6 v -17.067 h 25.6 z"
   id="path13" />
			<path
   d="M 92.867,340.333 H 50.2 c -5.12,0 -8.533,3.413 -8.533,8.533 V 383 c 0,5.12 3.413,8.533 8.533,8.533 h 42.667 c 5.12,0 8.533,-3.413 8.533,-8.533 v -34.133 c 0,-5.12 -3.413,-8.534 -8.533,-8.534 z m -8.534,34.134 h -25.6 V 357.4 h 25.6 z"
   id="path14" />
			<path
   d="M 417.133,255 H 459.8 c 5.12,0 8.533,-3.413 8.533,-8.533 v -34.133 c 0,-5.12 -3.413,-8.533 -8.533,-8.533 h -42.667 c -5.12,0 -8.533,3.413 -8.533,8.533 v 34.133 c 0,5.12 3.413,8.533 8.533,8.533 z m 8.534,-34.133 h 25.6 v 17.067 h -25.6 z"
   id="path15" />
			<path
   d="M 417.133,323.267 H 459.8 c 5.12,0 8.533,-3.413 8.533,-8.533 V 280.6 c 0,-5.12 -3.413,-8.533 -8.533,-8.533 h -42.667 c -5.12,0 -8.533,3.413 -8.533,8.533 v 34.133 c 0,5.12 3.413,8.534 8.533,8.534 z m 8.534,-34.134 h 25.6 V 306.2 h -25.6 z"
   id="path16-5" />
			<path
   d="M 417.133,391.533 H 459.8 c 5.12,0 8.533,-3.413 8.533,-8.533 v -34.133 c 0,-5.12 -3.413,-8.533 -8.533,-8.533 h -42.667 c -5.12,0 -8.533,3.413 -8.533,8.533 V 383 c 0,5.12 3.413,8.533 8.533,8.533 z m 8.534,-34.133 h 25.6 v 17.067 h -25.6 z"
   id="path17" />
			<path
   d="m 511,178.2 v -34.133 c 0,-5.12 -3.413,-8.533 -8.533,-8.533 H 357.4 V 50.2 c 5.12,0 8.533,-3.413 8.533,-8.533 V 7.533 C 365.933,2.413 362.52,-1 357.4,-1 H 152.6 c -5.12,0 -8.533,3.413 -8.533,8.533 v 34.133 c 0,5.12 3.413,8.533 8.533,8.533 V 67.266 H 7.533 C 2.413,67.267 -1,70.68 -1,75.8 v 34.133 c 0,5.12 3.413,8.533 8.533,8.533 v 324.267 c -5.12,0 -8.533,3.413 -8.533,8.533 v 51.2 c 0,5.12 3.413,8.533 8.533,8.533 h 494.933 c 5.12,0 8.533,-3.413 8.533,-8.533 v -51.2 c 0,-5.12 -3.413,-8.533 -8.533,-8.533 v -256 c 5.121,0 8.534,-3.413 8.534,-8.533 z m -17.067,-25.6 v 17.067 H 357.4 V 152.6 Z M 357.4,220.867 h 17.067 v 17.067 H 357.4 Z m 0,68.266 h 17.067 V 306.2 H 357.4 Z m 0,68.267 h 17.067 v 17.067 H 357.4 Z M 161.133,16.067 H 348.866 V 33.134 H 161.133 Z m 179.2,34.133 v 93.867 34.133 34.133 34.133 34.134 34.133 34.133 V 383 442.733 H 169.667 V 383 348.867 314.734 280.6 246.467 212.334 178.2 144.067 109.934 75.8 50.2 Z M 152.6,374.467 H 135.533 V 357.4 H 152.6 Z m 0,-68.267 H 135.533 V 289.133 H 152.6 Z m 0,-68.267 H 135.533 V 220.866 H 152.6 Z m 0,-68.266 H 135.533 V 152.6 H 152.6 Z M 16.067,84.333 H 152.6 V 101.4 H 16.067 Z m 8.533,34.134 h 128 v 17.067 H 127 c -5.12,0 -8.533,3.413 -8.533,8.533 V 178.2 c 0,5.12 3.413,8.533 8.533,8.533 h 25.6 V 203.8 H 127 c -5.12,0 -8.533,3.413 -8.533,8.533 v 34.133 c 0,5.12 3.413,8.533 8.533,8.533 h 25.6 v 17.067 H 127 c -5.12,0 -8.533,3.413 -8.533,8.533 v 34.133 c 0,5.12 3.413,8.533 8.533,8.533 h 25.6 v 17.067 H 127 c -5.12,0 -8.533,3.413 -8.533,8.533 V 383 c 0,5.12 3.413,8.533 8.533,8.533 h 25.6 v 51.2 H 24.6 Z M 493.933,493.933 H 16.067 V 459.8 h 145.067 187.733 145.067 v 34.133 z m -8.533,-51.2 h -128 v -51.2 H 383 c 5.12,0 8.533,-3.413 8.533,-8.533 v -34.133 c 0,-5.12 -3.413,-8.533 -8.533,-8.533 H 357.4 V 323.267 H 383 c 5.12,0 8.533,-3.413 8.533,-8.533 V 280.6 c 0,-5.12 -3.413,-8.533 -8.533,-8.533 H 357.4 V 255 H 383 c 5.12,0 8.533,-3.413 8.533,-8.533 v -34.133 c 0,-5.12 -3.413,-8.533 -8.533,-8.533 h -25.6 v -17.067 h 128 z"
   id="path18" />
		</g>
	</g>
</g></g><path
           id="path1-5"
           style="color:#000000;font-style:normal;font-variant:normal;font-weight:normal;font-stretch:normal;font-size:medium;line-height:normal;font-family:sans-serif;font-variant-ligatures:normal;font-variant-position:normal;font-variant-caps:normal;font-variant-numeric:normal;font-variant-alternates:normal;font-variant-east-asian:normal;font-feature-settings:normal;font-variation-settings:normal;text-indent:0;text-align:start;text-decoration-line:none;text-decoration-style:solid;text-decoration-color:#000000;letter-spacing:normal;word-spacing:normal;text-transform:none;writing-mode:lr-tb;direction:ltr;text-orientation:mixed;dominant-baseline:auto;baseline-shift:baseline;text-anchor:start;white-space:normal;shape-padding:0;shape-margin:0;inline-size:0;clip-rule:nonzero;display:inline;overflow:visible;visibility:visible;isolation:auto;mix-blend-mode:normal;color-interpolation:sRGB;color-interpolation-filters:linearRGB;solid-color:#000000;solid-opacity:1;fill:#000000;fill-opacity:1;fill-rule:nonzero;stroke:none;stroke-width:10.3119;stroke-linecap:butt;stroke-linejoin:miter;stroke-miterlimit:4;stroke-dasharray:none;stroke-dashoffset:0;stroke-opacity:1;color-rendering:auto;image-rendering:auto;shape-rendering:auto;text-rendering:auto;enable-background:accumulate;stop-color:#000000"
           sodipodi:type="inkscape:offset"
           inkscape:radius="0"
           inkscape:original="M 32.701172 158.95898 C 25.385304 159.42683 20.011736 166.72816 21.677734 174.80273 A 6.0961863 6.0961863 0 0 1 21.802734 176.03516 C 21.804034 192.21163 21.799988 208.38568 21.804688 224.55859 A 6.0961863 6.0961863 0 0 1 15.722656 230.65625 C 11.664066 230.66523 9.8884454 231.94062 8.5214844 233.84375 C 7.1545233 235.74688 6.4539914 238.7411 6.8164062 241.76562 C 7.1788211 244.79015 8.5794841 247.62148 10.419922 249.25195 C 12.26036 250.88242 14.353349 251.75626 18.242188 250.93945 A 6.0961863 6.0961863 0 0 1 24.728516 253.7793 C 34.501725 270.1409 49.614327 288.14501 66.462891 299.49023 A 6.0961863 6.0961863 0 0 1 66.662109 299.63086 C 92.002801 318.2038 124.49173 323.59018 156.21875 322.12109 A 6.0961863 6.0961863 0 0 1 156.5 322.11523 L 196.99219 322.11523 A 6.0961863 6.0961863 0 0 1 202.96875 327.00977 C 206.44705 344.30794 225.08073 354.899 242.35938 352.72266 A 6.0961863 6.0961863 0 0 1 243.05469 352.67383 C 277.01461 352.30917 310.82031 353.41582 344.25391 352.08398 A 6.0961863 6.0961863 0 0 1 344.80859 352.08594 C 348.59112 352.2798 351.1195 351.34007 353.6875 349.54883 C 356.2555 347.75759 358.71999 344.93924 361.13672 341.62891 C 365.97019 335.00824 369.89132 325.86939 379.53906 322.46289 A 6.0961863 6.0961863 0 0 1 381.53125 322.11523 C 415.13156 321.9129 448.63713 322.51161 481.95898 321.80859 C 501.24866 319.57483 512.49008 295.63341 501.75 279.36133 A 6.0961863 6.0961863 0 0 1 501.60547 279.12891 C 482.73511 247.53398 444.87921 229.8765 408.32227 232.65039 A 6.0961863 6.0961863 0 0 1 407.86133 232.66797 L 123.81641 232.66797 A 6.0961863 6.0961863 0 0 1 118.87109 230.13477 C 102.43407 207.31977 87.019897 183.97278 70.296875 161.95117 C 66.408208 159.76613 61.871754 159.10766 56.353516 159.11719 C 50.461807 159.12736 43.768386 159.92325 36.724609 159.30078 A 6.0961863 6.0961863 0 0 1 36.044922 159.20117 C 34.855512 158.95889 33.747005 158.8921 32.701172 158.95898 z M 50.777344 178.99805 C 56.109875 178.88521 60.280825 182.22482 62.630859 185.16406 C 64.980894 188.1033 66.489158 190.99487 67.804688 192.69922 A 6.0961863 6.0961863 0 0 1 67.917969 192.85156 C 81.830022 212.09113 94.716455 231.81815 108.85938 250.21484 C 112.75036 252.40481 117.29116 253.06226 122.81445 253.05273 C 128.70616 253.04257 135.39958 252.24667 142.44336 252.86914 L 141.90625 252.8457 L 411.89453 252.8457 A 6.0961863 6.0961863 0 0 1 417.91406 259.90039 C 416.99896 265.64134 418.75467 267.44475 422.66211 269.48828 C 426.56955 271.53181 433.00745 272.27189 438.04102 271.54688 A 6.0961863 6.0961863 0 0 1 438.76367 271.48633 C 448.1781 271.26052 457.08762 271.91143 465.36523 271.11133 A 6.0961863 6.0961863 0 0 1 470.39062 273 C 474.64953 277.52675 483.35428 283.41427 485.39062 293.74609 A 6.0961863 6.0961863 0 0 1 480.8125 300.85742 C 469.9716 303.42093 459.20309 301.3792 450.6582 301.92578 A 6.0961863 6.0961863 0 0 1 450.26953 301.9375 L 369.27344 301.9375 A 6.0961863 6.0961863 0 0 1 364.2207 299.25 C 360.13727 293.1972 354.47174 289.77037 347.55078 287.78906 C 340.62982 285.80775 332.55243 285.48541 324.81445 286.00781 A 6.0961863 6.0961863 0 0 1 324.47852 286.02148 C 292.24979 286.41513 260.19543 285.22432 228.56641 286.65625 A 6.0961863 6.0961863 0 0 1 228.00195 286.6543 C 223.81342 286.45478 220.72966 288.9221 216.18555 292.89453 C 211.64143 296.86696 205.59746 302.59703 196.6875 301.91992 L 196.99219 301.93555 C 171.65123 301.28866 145.42313 303.61622 118.9082 300.06445 A 6.0961863 6.0961863 0 0 1 118.63672 300.02344 C 91.710626 295.1736 68.125176 279.16583 51.791016 257.93945 A 6.0961863 6.0961863 0 0 1 53.34375 249.08203 C 56.44711 247.10351 57.364236 245.43279 57.736328 243.85938 C 58.10842 242.28596 57.855515 240.36142 56.8125 238.13281 C 54.726469 233.6756 48.96548 228.946 46.148438 228.00586 A 6.0961863 6.0961863 0 0 1 41.982422 222.22461 L 41.982422 185.59961 A 6.0961863 6.0961863 0 0 1 46.216797 179.79492 C 47.721221 179.31267 49.250386 179.03034 50.777344 178.99805 z M 243.51758 305.40625 C 245.08902 305.46136 246.68543 305.75076 248.27148 306.19922 L 337.58789 306.19922 C 341.46399 306.16253 345.16767 307.87005 347.42969 310.4668 C 349.69171 313.06354 350.6584 316.2456 350.6582 319.33984 C 350.65801 322.43409 349.69215 325.61351 347.43359 328.21094 C 345.17503 330.80836 341.47792 332.52363 337.60156 332.49609 L 235.39648 332.49609 A 6.0961863 6.0961863 0 0 1 233.16406 332.07227 C 228.68078 330.30754 225.15858 328.02613 223.38477 324.05859 C 221.61095 320.09106 223.02627 315.41104 225.24414 312.74023 C 229.67988 307.39863 236.40522 305.1568 243.51758 305.40625 z "
           d="m 32.701172,158.95898 c -7.315868,0.46785 -12.689436,7.76918 -11.023438,15.84375 a 6.0961863,6.0961863 0 0 1 0.125,1.23243 c 0.0013,16.17647 -0.0027,32.35052 0.002,48.52343 a 6.0961863,6.0961863 0 0 1 -6.082032,6.09766 c -4.05859,0.009 -5.8342106,1.28437 -7.2011716,3.1875 -1.3669611,1.90313 -2.067493,4.89735 -1.7050782,7.92187 0.3624149,3.02453 1.7630779,5.85586 3.6035158,7.48633 1.840438,1.63047 3.933427,2.50431 7.822266,1.6875 a 6.0961863,6.0961863 0 0 1 6.486328,2.83985 c 9.773209,16.3616 24.885811,34.36571 41.734375,45.71093 a 6.0961863,6.0961863 0 0 1 0.199218,0.14063 c 25.340692,18.57294 57.829621,23.95932 89.556641,22.49023 a 6.0961863,6.0961863 0 0 1 0.28125,-0.006 h 40.49219 a 6.0961863,6.0961863 0 0 1 5.97656,4.89454 c 3.4783,17.29817 22.11198,27.88923 39.39063,25.71289 a 6.0961863,6.0961863 0 0 1 0.69531,-0.0488 c 33.95992,-0.36466 67.76562,0.74199 101.19922,-0.58985 a 6.0961863,6.0961863 0 0 1 0.55468,0.002 c 3.78253,0.19386 6.31091,-0.74587 8.87891,-2.53711 2.568,-1.79124 5.03249,-4.60959 7.44922,-7.91992 4.83347,-6.62067 8.7546,-15.75952 18.40234,-19.16602 a 6.0961863,6.0961863 0 0 1 1.99219,-0.34766 c 33.60031,-0.20233 67.10588,0.39638 100.42773,-0.30664 19.28968,-2.23376 30.5311,-26.17518 19.79102,-42.44726 a 6.0961863,6.0961863 0 0 1 -0.14453,-0.23242 c -18.87036,-31.59493 -56.72626,-49.25241 -93.2832,-46.47852 a 6.0961863,6.0961863 0 0 1 -0.46094,0.0176 H 123.81641 a 6.0961863,6.0961863 0 0 1 -4.94532,-2.5332 c -16.43702,-22.815 -31.851193,-46.16199 -48.574215,-68.1836 -3.888667,-2.18504 -8.425121,-2.84351 -13.943359,-2.83398 -5.891709,0.0102 -12.58513,0.80606 -19.628907,0.18359 a 6.0961863,6.0961863 0 0 1 -0.679687,-0.0996 c -1.18941,-0.24228 -2.297917,-0.30907 -3.34375,-0.24219 z m 18.076172,20.03907 c 5.332531,-0.11284 9.503481,3.22677 11.853515,6.16601 2.350035,2.93924 3.858299,5.83081 5.173829,7.53516 a 6.0961863,6.0961863 0 0 1 0.113281,0.15234 c 13.912053,19.23957 26.798486,38.96659 40.941411,57.36328 3.89098,2.18997 8.43178,2.84742 13.95507,2.83789 5.89171,-0.0102 12.58513,-0.80606 19.62891,-0.18359 l -0.53711,-0.0234 h 269.98828 a 6.0961863,6.0961863 0 0 1 6.01953,7.05469 c -0.9151,5.74095 0.84061,7.54436 4.74805,9.58789 3.90744,2.04353 10.34534,2.78361 15.37891,2.0586 a 6.0961863,6.0961863 0 0 1 0.72265,-0.0605 c 9.41443,-0.22581 18.32395,0.4251 26.60156,-0.375 A 6.0961863,6.0961863 0 0 1 470.39062,273 c 4.25891,4.52675 12.96366,10.41427 15,20.74609 a 6.0961863,6.0961863 0 0 1 -4.57812,7.11133 c -10.8409,2.56351 -21.60941,0.52178 -30.1543,1.06836 a 6.0961863,6.0961863 0 0 1 -0.38867,0.0117 H 369.27344 A 6.0961863,6.0961863 0 0 1 364.2207,299.25 c -4.08343,-6.0528 -9.74896,-9.47963 -16.66992,-11.46094 -6.92096,-1.98131 -14.99835,-2.30365 -22.73633,-1.78125 a 6.0961863,6.0961863 0 0 1 -0.33593,0.0137 c -32.22873,0.39365 -64.28309,-0.79716 -95.91211,0.63477 a 6.0961863,6.0961863 0 0 1 -0.56446,-0.002 c -4.18853,-0.19952 -7.27229,2.2678 -11.8164,6.24023 -4.54412,3.97243 -10.58809,9.7025 -19.49805,9.02539 l 0.30469,0.0156 c -25.34096,-0.64689 -51.56906,1.68067 -78.08399,-1.8711 a 6.0961863,6.0961863 0 0 1 -0.27148,-0.041 C 91.710626,295.1736 68.125176,279.16583 51.791016,257.93945 a 6.0961863,6.0961863 0 0 1 1.552734,-8.85742 c 3.10336,-1.97852 4.020486,-3.64924 4.392578,-5.22265 0.372092,-1.57342 0.119187,-3.49796 -0.923828,-5.72657 -2.086031,-4.45721 -7.84702,-9.18681 -10.664062,-10.12695 a 6.0961863,6.0961863 0 0 1 -4.166016,-5.78125 v -36.625 a 6.0961863,6.0961863 0 0 1 4.234375,-5.80469 c 1.504424,-0.48225 3.033589,-0.76458 4.560547,-0.79687 z m 192.740236,126.4082 c 1.57144,0.0551 3.16785,0.34451 4.7539,0.79297 h 89.31641 c 3.8761,-0.0367 7.57978,1.67083 9.8418,4.26758 2.26202,2.59674 3.22871,5.7788 3.22851,8.87304 -1.9e-4,3.09425 -0.96605,6.27367 -3.22461,8.8711 -2.25856,2.59742 -5.95567,4.31269 -9.83203,4.28515 H 235.39648 a 6.0961863,6.0961863 0 0 1 -2.23242,-0.42382 c -4.48328,-1.76473 -8.00548,-4.04614 -9.77929,-8.01368 -1.77382,-3.96753 -0.3585,-8.64755 1.85937,-11.31836 4.43574,-5.3416 11.16108,-7.58343 18.27344,-7.33398 z"
           transform="matrix(-0.0588346,0,0,0.05940767,85.065721,45.03937)" /></g></g></g><script
     id="mesh_polyfill"
     type="text/javascript">
!function(){const t=&quot;http://www.w3.org/2000/svg&quot;,e=&quot;http://www.w3.org/1999/xlink&quot;,s=&quot;http://www.w3.org/1999/xhtml&quot;,r=2;if(document.createElementNS(t,&quot;meshgradient&quot;).x)return;const n=(t,e,s,r)=&gt;{let n=new x(.5*(e.x+s.x),.5*(e.y+s.y)),o=new x(.5*(t.x+e.x),.5*(t.y+e.y)),i=new x(.5*(s.x+r.x),.5*(s.y+r.y)),a=new x(.5*(n.x+o.x),.5*(n.y+o.y)),h=new x(.5*(n.x+i.x),.5*(n.y+i.y)),l=new x(.5*(a.x+h.x),.5*(a.y+h.y));return[[t,o,a,l],[l,h,i,r]]},o=t=&gt;{let e=t[0].distSquared(t[1]),s=t[2].distSquared(t[3]),r=.25*t[0].distSquared(t[2]),n=.25*t[1].distSquared(t[3]),o=e&gt;s?e:s,i=r&gt;n?r:n;return 18*(o&gt;i?o:i)},i=(t,e)=&gt;Math.sqrt(t.distSquared(e)),a=(t,e)=&gt;t.scale(2/3).add(e.scale(1/3)),h=t=&gt;{let e,s,r,n,o,i,a,h=new g;return t.match(/(\w+\(\s*[^)]+\))+/g).forEach(t=&gt;{let l=t.match(/[\w.-]+/g),d=l.shift();switch(d){case&quot;translate&quot;:2===l.length?e=new g(1,0,0,1,l[0],l[1]):(console.error(&quot;mesh.js: translate does not have 2 arguments!&quot;),e=new g(1,0,0,1,0,0)),h=h.append(e);break;case&quot;scale&quot;:1===l.length?s=new g(l[0],0,0,l[0],0,0):2===l.length?s=new g(l[0],0,0,l[1],0,0):(console.error(&quot;mesh.js: scale does not have 1 or 2 arguments!&quot;),s=new g(1,0,0,1,0,0)),h=h.append(s);break;case&quot;rotate&quot;:if(3===l.length&amp;&amp;(e=new g(1,0,0,1,l[1],l[2]),h=h.append(e)),l[0]){r=l[0]*Math.PI/180;let t=Math.cos(r),e=Math.sin(r);Math.abs(t)&lt;1e-16&amp;&amp;(t=0),Math.abs(e)&lt;1e-16&amp;&amp;(e=0),a=new g(t,e,-e,t,0,0),h=h.append(a)}else console.error(&quot;math.js: No argument to rotate transform!&quot;);3===l.length&amp;&amp;(e=new g(1,0,0,1,-l[1],-l[2]),h=h.append(e));break;case&quot;skewX&quot;:l[0]?(r=l[0]*Math.PI/180,n=Math.tan(r),o=new g(1,0,n,1,0,0),h=h.append(o)):console.error(&quot;math.js: No argument to skewX transform!&quot;);break;case&quot;skewY&quot;:l[0]?(r=l[0]*Math.PI/180,n=Math.tan(r),i=new g(1,n,0,1,0,0),h=h.append(i)):console.error(&quot;math.js: No argument to skewY transform!&quot;);break;case&quot;matrix&quot;:6===l.length?h=h.append(new g(...l)):console.error(&quot;math.js: Incorrect number of arguments for matrix!&quot;);break;default:console.error(&quot;mesh.js: Unhandled transform type: &quot;+d)}}),h},l=t=&gt;{let e=[],s=t.split(/[ ,]+/);for(let t=0,r=s.length-1;t&lt;r;t+=2)e.push(new x(parseFloat(s[t]),parseFloat(s[t+1])));return e},d=(t,e)=&gt;{for(let s in e)t.setAttribute(s,e[s])},c=(t,e,s,r,n)=&gt;{let o,i,a=[0,0,0,0];for(let h=0;h&lt;3;++h)e[h]&lt;t[h]&amp;&amp;e[h]&lt;s[h]||t[h]&lt;e[h]&amp;&amp;s[h]&lt;e[h]?a[h]=0:(a[h]=.5*((e[h]-t[h])/r+(s[h]-e[h])/n),o=Math.abs(3*(e[h]-t[h])/r),i=Math.abs(3*(s[h]-e[h])/n),a[h]&gt;o?a[h]=o:a[h]&gt;i&amp;&amp;(a[h]=i));return a},u=[[1,0,0,0,0,0,0,0,0,0,0,0,0,0,0,0],[0,0,0,0,1,0,0,0,0,0,0,0,0,0,0,0],[-3,3,0,0,-2,-1,0,0,0,0,0,0,0,0,0,0],[2,-2,0,0,1,1,0,0,0,0,0,0,0,0,0,0],[0,0,0,0,0,0,0,0,1,0,0,0,0,0,0,0],[0,0,0,0,0,0,0,0,0,0,0,0,1,0,0,0],[0,0,0,0,0,0,0,0,-3,3,0,0,-2,-1,0,0],[0,0,0,0,0,0,0,0,2,-2,0,0,1,1,0,0],[-3,0,3,0,0,0,0,0,-2,0,-1,0,0,0,0,0],[0,0,0,0,-3,0,3,0,0,0,0,0,-2,0,-1,0],[9,-9,-9,9,6,3,-6,-3,6,-6,3,-3,4,2,2,1],[-6,6,6,-6,-3,-3,3,3,-4,4,-2,2,-2,-2,-1,-1],[2,0,-2,0,0,0,0,0,1,0,1,0,0,0,0,0],[0,0,0,0,2,0,-2,0,0,0,0,0,1,0,1,0],[-6,6,6,-6,-4,-2,4,2,-3,3,-3,3,-2,-1,-2,-1],[4,-4,-4,4,2,2,-2,-2,2,-2,2,-2,1,1,1,1]],f=t=&gt;{let e=[];for(let s=0;s&lt;16;++s){e[s]=0;for(let r=0;r&lt;16;++r)e[s]+=u[s][r]*t[r]}return e},p=(t,e,s)=&gt;{const r=e*e,n=s*s,o=e*e*e,i=s*s*s;return t[0]+t[1]*e+t[2]*r+t[3]*o+t[4]*s+t[5]*s*e+t[6]*s*r+t[7]*s*o+t[8]*n+t[9]*n*e+t[10]*n*r+t[11]*n*o+t[12]*i+t[13]*i*e+t[14]*i*r+t[15]*i*o},y=t=&gt;{let e=[],s=[],r=[];for(let s=0;s&lt;4;++s)e[s]=[],e[s][0]=n(t[0][s],t[1][s],t[2][s],t[3][s]),e[s][1]=[],e[s][1].push(...n(...e[s][0][0])),e[s][1].push(...n(...e[s][0][1])),e[s][2]=[],e[s][2].push(...n(...e[s][1][0])),e[s][2].push(...n(...e[s][1][1])),e[s][2].push(...n(...e[s][1][2])),e[s][2].push(...n(...e[s][1][3]));for(let t=0;t&lt;8;++t){s[t]=[];for(let r=0;r&lt;4;++r)s[t][r]=[],s[t][r][0]=n(e[0][2][t][r],e[1][2][t][r],e[2][2][t][r],e[3][2][t][r]),s[t][r][1]=[],s[t][r][1].push(...n(...s[t][r][0][0])),s[t][r][1].push(...n(...s[t][r][0][1])),s[t][r][2]=[],s[t][r][2].push(...n(...s[t][r][1][0])),s[t][r][2].push(...n(...s[t][r][1][1])),s[t][r][2].push(...n(...s[t][r][1][2])),s[t][r][2].push(...n(...s[t][r][1][3]))}for(let t=0;t&lt;8;++t){r[t]=[];for(let e=0;e&lt;8;++e)r[t][e]=[],r[t][e][0]=s[t][0][2][e],r[t][e][1]=s[t][1][2][e],r[t][e][2]=s[t][2][2][e],r[t][e][3]=s[t][3][2][e]}return r};class x{constructor(t,e){this.x=t||0,this.y=e||0}toString(){return`(x=${this.x}, y=${this.y})`}clone(){return new x(this.x,this.y)}add(t){return new x(this.x+t.x,this.y+t.y)}scale(t){return void 0===t.x?new x(this.x*t,this.y*t):new x(this.x*t.x,this.y*t.y)}distSquared(t){let e=this.x-t.x,s=this.y-t.y;return e*e+s*s}transform(t){let e=this.x*t.a+this.y*t.c+t.e,s=this.x*t.b+this.y*t.d+t.f;return new x(e,s)}}class g{constructor(t,e,s,r,n,o){void 0===t?(this.a=1,this.b=0,this.c=0,this.d=1,this.e=0,this.f=0):(this.a=t,this.b=e,this.c=s,this.d=r,this.e=n,this.f=o)}toString(){return`affine: ${this.a} ${this.c} ${this.e} \n       ${this.b} ${this.d} ${this.f}`}append(t){t instanceof g||console.error(&quot;mesh.js: argument to Affine.append is not affine!&quot;);let e=this.a*t.a+this.c*t.b,s=this.b*t.a+this.d*t.b,r=this.a*t.c+this.c*t.d,n=this.b*t.c+this.d*t.d,o=this.a*t.e+this.c*t.f+this.e,i=this.b*t.e+this.d*t.f+this.f;return new g(e,s,r,n,o,i)}}class w{constructor(t,e){this.nodes=t,this.colors=e}paintCurve(t,e){if(o(this.nodes)&gt;r){const s=n(...this.nodes);let r=[[],[]],o=[[],[]];for(let t=0;t&lt;4;++t)r[0][t]=this.colors[0][t],r[1][t]=(this.colors[0][t]+this.colors[1][t])/2,o[0][t]=r[1][t],o[1][t]=this.colors[1][t];let i=new w(s[0],r),a=new w(s[1],o);i.paintCurve(t,e),a.paintCurve(t,e)}else{let s=Math.round(this.nodes[0].x);if(s&gt;=0&amp;&amp;s&lt;e){let r=4*(~~this.nodes[0].y*e+s);t[r]=Math.round(this.colors[0][0]),t[r+1]=Math.round(this.colors[0][1]),t[r+2]=Math.round(this.colors[0][2]),t[r+3]=Math.round(this.colors[0][3])}}}}class m{constructor(t,e){this.nodes=t,this.colors=e}split(){let t=[[],[],[],[]],e=[[],[],[],[]],s=[[[],[]],[[],[]]],r=[[[],[]],[[],[]]];for(let s=0;s&lt;4;++s){const r=n(this.nodes[0][s],this.nodes[1][s],this.nodes[2][s],this.nodes[3][s]);t[0][s]=r[0][0],t[1][s]=r[0][1],t[2][s]=r[0][2],t[3][s]=r[0][3],e[0][s]=r[1][0],e[1][s]=r[1][1],e[2][s]=r[1][2],e[3][s]=r[1][3]}for(let t=0;t&lt;4;++t)s[0][0][t]=this.colors[0][0][t],s[0][1][t]=this.colors[0][1][t],s[1][0][t]=(this.colors[0][0][t]+this.colors[1][0][t])/2,s[1][1][t]=(this.colors[0][1][t]+this.colors[1][1][t])/2,r[0][0][t]=s[1][0][t],r[0][1][t]=s[1][1][t],r[1][0][t]=this.colors[1][0][t],r[1][1][t]=this.colors[1][1][t];return[new m(t,s),new m(e,r)]}paint(t,e){let s,n=!1;for(let t=0;t&lt;4;++t)if((s=o([this.nodes[0][t],this.nodes[1][t],this.nodes[2][t],this.nodes[3][t]]))&gt;r){n=!0;break}if(n){let s=this.split();s[0].paint(t,e),s[1].paint(t,e)}else{new w([...this.nodes[0]],[...this.colors[0]]).paintCurve(t,e)}}}class b{constructor(t){this.readMesh(t),this.type=t.getAttribute(&quot;type&quot;)||&quot;bilinear&quot;}readMesh(t){let e=[[]],s=[[]],r=Number(t.getAttribute(&quot;x&quot;)),n=Number(t.getAttribute(&quot;y&quot;));e[0][0]=new x(r,n);let o=t.children;for(let t=0,r=o.length;t&lt;r;++t){e[3*t+1]=[],e[3*t+2]=[],e[3*t+3]=[],s[t+1]=[];let r=o[t].children;for(let n=0,o=r.length;n&lt;o;++n){let o=r[n].children;for(let r=0,i=o.length;r&lt;i;++r){let i=r;0!==t&amp;&amp;++i;let h,d=o[r].getAttribute(&quot;path&quot;),c=&quot;l&quot;;null!=d&amp;&amp;(c=(h=d.match(/\s*([lLcC])\s*(.*)/))[1]);let u=l(h[2]);switch(c){case&quot;l&quot;:0===i?(e[3*t][3*n+3]=u[0].add(e[3*t][3*n]),e[3*t][3*n+1]=a(e[3*t][3*n],e[3*t][3*n+3]),e[3*t][3*n+2]=a(e[3*t][3*n+3],e[3*t][3*n])):1===i?(e[3*t+3][3*n+3]=u[0].add(e[3*t][3*n+3]),e[3*t+1][3*n+3]=a(e[3*t][3*n+3],e[3*t+3][3*n+3]),e[3*t+2][3*n+3]=a(e[3*t+3][3*n+3],e[3*t][3*n+3])):2===i?(0===n&amp;&amp;(e[3*t+3][3*n+0]=u[0].add(e[3*t+3][3*n+3])),e[3*t+3][3*n+1]=a(e[3*t+3][3*n],e[3*t+3][3*n+3]),e[3*t+3][3*n+2]=a(e[3*t+3][3*n+3],e[3*t+3][3*n])):(e[3*t+1][3*n]=a(e[3*t][3*n],e[3*t+3][3*n]),e[3*t+2][3*n]=a(e[3*t+3][3*n],e[3*t][3*n]));break;case&quot;L&quot;:0===i?(e[3*t][3*n+3]=u[0],e[3*t][3*n+1]=a(e[3*t][3*n],e[3*t][3*n+3]),e[3*t][3*n+2]=a(e[3*t][3*n+3],e[3*t][3*n])):1===i?(e[3*t+3][3*n+3]=u[0],e[3*t+1][3*n+3]=a(e[3*t][3*n+3],e[3*t+3][3*n+3]),e[3*t+2][3*n+3]=a(e[3*t+3][3*n+3],e[3*t][3*n+3])):2===i?(0===n&amp;&amp;(e[3*t+3][3*n+0]=u[0]),e[3*t+3][3*n+1]=a(e[3*t+3][3*n],e[3*t+3][3*n+3]),e[3*t+3][3*n+2]=a(e[3*t+3][3*n+3],e[3*t+3][3*n])):(e[3*t+1][3*n]=a(e[3*t][3*n],e[3*t+3][3*n]),e[3*t+2][3*n]=a(e[3*t+3][3*n],e[3*t][3*n]));break;case&quot;c&quot;:0===i?(e[3*t][3*n+1]=u[0].add(e[3*t][3*n]),e[3*t][3*n+2]=u[1].add(e[3*t][3*n]),e[3*t][3*n+3]=u[2].add(e[3*t][3*n])):1===i?(e[3*t+1][3*n+3]=u[0].add(e[3*t][3*n+3]),e[3*t+2][3*n+3]=u[1].add(e[3*t][3*n+3]),e[3*t+3][3*n+3]=u[2].add(e[3*t][3*n+3])):2===i?(e[3*t+3][3*n+2]=u[0].add(e[3*t+3][3*n+3]),e[3*t+3][3*n+1]=u[1].add(e[3*t+3][3*n+3]),0===n&amp;&amp;(e[3*t+3][3*n+0]=u[2].add(e[3*t+3][3*n+3]))):(e[3*t+2][3*n]=u[0].add(e[3*t+3][3*n]),e[3*t+1][3*n]=u[1].add(e[3*t+3][3*n]));break;case&quot;C&quot;:0===i?(e[3*t][3*n+1]=u[0],e[3*t][3*n+2]=u[1],e[3*t][3*n+3]=u[2]):1===i?(e[3*t+1][3*n+3]=u[0],e[3*t+2][3*n+3]=u[1],e[3*t+3][3*n+3]=u[2]):2===i?(e[3*t+3][3*n+2]=u[0],e[3*t+3][3*n+1]=u[1],0===n&amp;&amp;(e[3*t+3][3*n+0]=u[2])):(e[3*t+2][3*n]=u[0],e[3*t+1][3*n]=u[1]);break;default:console.error(&quot;mesh.js: &quot;+c+&quot; invalid path type.&quot;)}if(0===t&amp;&amp;0===n||r&gt;0){let e=window.getComputedStyle(o[r]).stopColor.match(/^rgb\s*\(\s*(\d+)\s*,\s*(\d+)\s*,\s*(\d+)\s*\)$/i),a=window.getComputedStyle(o[r]).stopOpacity,h=255;a&amp;&amp;(h=Math.floor(255*a)),e&amp;&amp;(0===i?(s[t][n]=[],s[t][n][0]=Math.floor(e[1]),s[t][n][1]=Math.floor(e[2]),s[t][n][2]=Math.floor(e[3]),s[t][n][3]=h):1===i?(s[t][n+1]=[],s[t][n+1][0]=Math.floor(e[1]),s[t][n+1][1]=Math.floor(e[2]),s[t][n+1][2]=Math.floor(e[3]),s[t][n+1][3]=h):2===i?(s[t+1][n+1]=[],s[t+1][n+1][0]=Math.floor(e[1]),s[t+1][n+1][1]=Math.floor(e[2]),s[t+1][n+1][2]=Math.floor(e[3]),s[t+1][n+1][3]=h):3===i&amp;&amp;(s[t+1][n]=[],s[t+1][n][0]=Math.floor(e[1]),s[t+1][n][1]=Math.floor(e[2]),s[t+1][n][2]=Math.floor(e[3]),s[t+1][n][3]=h))}}e[3*t+1][3*n+1]=new x,e[3*t+1][3*n+2]=new x,e[3*t+2][3*n+1]=new x,e[3*t+2][3*n+2]=new x,e[3*t+1][3*n+1].x=(-4*e[3*t][3*n].x+6*(e[3*t][3*n+1].x+e[3*t+1][3*n].x)+-2*(e[3*t][3*n+3].x+e[3*t+3][3*n].x)+3*(e[3*t+3][3*n+1].x+e[3*t+1][3*n+3].x)+-1*e[3*t+3][3*n+3].x)/9,e[3*t+1][3*n+2].x=(-4*e[3*t][3*n+3].x+6*(e[3*t][3*n+2].x+e[3*t+1][3*n+3].x)+-2*(e[3*t][3*n].x+e[3*t+3][3*n+3].x)+3*(e[3*t+3][3*n+2].x+e[3*t+1][3*n].x)+-1*e[3*t+3][3*n].x)/9,e[3*t+2][3*n+1].x=(-4*e[3*t+3][3*n].x+6*(e[3*t+3][3*n+1].x+e[3*t+2][3*n].x)+-2*(e[3*t+3][3*n+3].x+e[3*t][3*n].x)+3*(e[3*t][3*n+1].x+e[3*t+2][3*n+3].x)+-1*e[3*t][3*n+3].x)/9,e[3*t+2][3*n+2].x=(-4*e[3*t+3][3*n+3].x+6*(e[3*t+3][3*n+2].x+e[3*t+2][3*n+3].x)+-2*(e[3*t+3][3*n].x+e[3*t][3*n+3].x)+3*(e[3*t][3*n+2].x+e[3*t+2][3*n].x)+-1*e[3*t][3*n].x)/9,e[3*t+1][3*n+1].y=(-4*e[3*t][3*n].y+6*(e[3*t][3*n+1].y+e[3*t+1][3*n].y)+-2*(e[3*t][3*n+3].y+e[3*t+3][3*n].y)+3*(e[3*t+3][3*n+1].y+e[3*t+1][3*n+3].y)+-1*e[3*t+3][3*n+3].y)/9,e[3*t+1][3*n+2].y=(-4*e[3*t][3*n+3].y+6*(e[3*t][3*n+2].y+e[3*t+1][3*n+3].y)+-2*(e[3*t][3*n].y+e[3*t+3][3*n+3].y)+3*(e[3*t+3][3*n+2].y+e[3*t+1][3*n].y)+-1*e[3*t+3][3*n].y)/9,e[3*t+2][3*n+1].y=(-4*e[3*t+3][3*n].y+6*(e[3*t+3][3*n+1].y+e[3*t+2][3*n].y)+-2*(e[3*t+3][3*n+3].y+e[3*t][3*n].y)+3*(e[3*t][3*n+1].y+e[3*t+2][3*n+3].y)+-1*e[3*t][3*n+3].y)/9,e[3*t+2][3*n+2].y=(-4*e[3*t+3][3*n+3].y+6*(e[3*t+3][3*n+2].y+e[3*t+2][3*n+3].y)+-2*(e[3*t+3][3*n].y+e[3*t][3*n+3].y)+3*(e[3*t][3*n+2].y+e[3*t+2][3*n].y)+-1*e[3*t][3*n].y)/9}}this.nodes=e,this.colors=s}paintMesh(t,e){let s=(this.nodes.length-1)/3,r=(this.nodes[0].length-1)/3;if(&quot;bilinear&quot;===this.type||s&lt;2||r&lt;2){let n;for(let o=0;o&lt;s;++o)for(let s=0;s&lt;r;++s){let r=[];for(let t=3*o,e=3*o+4;t&lt;e;++t)r.push(this.nodes[t].slice(3*s,3*s+4));let i=[];i.push(this.colors[o].slice(s,s+2)),i.push(this.colors[o+1].slice(s,s+2)),(n=new m(r,i)).paint(t,e)}}else{let n,o,a,h,l,d,u;const x=s,g=r;s++,r++;let w=new Array(s);for(let t=0;t&lt;s;++t){w[t]=new Array(r);for(let e=0;e&lt;r;++e)w[t][e]=[],w[t][e][0]=this.nodes[3*t][3*e],w[t][e][1]=this.colors[t][e]}for(let t=0;t&lt;s;++t)for(let e=0;e&lt;r;++e)0!==t&amp;&amp;t!==x&amp;&amp;(n=i(w[t-1][e][0],w[t][e][0]),o=i(w[t+1][e][0],w[t][e][0]),w[t][e][2]=c(w[t-1][e][1],w[t][e][1],w[t+1][e][1],n,o)),0!==e&amp;&amp;e!==g&amp;&amp;(n=i(w[t][e-1][0],w[t][e][0]),o=i(w[t][e+1][0],w[t][e][0]),w[t][e][3]=c(w[t][e-1][1],w[t][e][1],w[t][e+1][1],n,o));for(let t=0;t&lt;r;++t){w[0][t][2]=[],w[x][t][2]=[];for(let e=0;e&lt;4;++e)n=i(w[1][t][0],w[0][t][0]),o=i(w[x][t][0],w[x-1][t][0]),w[0][t][2][e]=n&gt;0?2*(w[1][t][1][e]-w[0][t][1][e])/n-w[1][t][2][e]:0,w[x][t][2][e]=o&gt;0?2*(w[x][t][1][e]-w[x-1][t][1][e])/o-w[x-1][t][2][e]:0}for(let t=0;t&lt;s;++t){w[t][0][3]=[],w[t][g][3]=[];for(let e=0;e&lt;4;++e)n=i(w[t][1][0],w[t][0][0]),o=i(w[t][g][0],w[t][g-1][0]),w[t][0][3][e]=n&gt;0?2*(w[t][1][1][e]-w[t][0][1][e])/n-w[t][1][3][e]:0,w[t][g][3][e]=o&gt;0?2*(w[t][g][1][e]-w[t][g-1][1][e])/o-w[t][g-1][3][e]:0}for(let s=0;s&lt;x;++s)for(let r=0;r&lt;g;++r){let n=i(w[s][r][0],w[s+1][r][0]),o=i(w[s][r+1][0],w[s+1][r+1][0]),c=i(w[s][r][0],w[s][r+1][0]),x=i(w[s+1][r][0],w[s+1][r+1][0]),g=[[],[],[],[]];for(let t=0;t&lt;4;++t){(d=[])[0]=w[s][r][1][t],d[1]=w[s+1][r][1][t],d[2]=w[s][r+1][1][t],d[3]=w[s+1][r+1][1][t],d[4]=w[s][r][2][t]*n,d[5]=w[s+1][r][2][t]*n,d[6]=w[s][r+1][2][t]*o,d[7]=w[s+1][r+1][2][t]*o,d[8]=w[s][r][3][t]*c,d[9]=w[s+1][r][3][t]*x,d[10]=w[s][r+1][3][t]*c,d[11]=w[s+1][r+1][3][t]*x,d[12]=0,d[13]=0,d[14]=0,d[15]=0,u=f(d);for(let e=0;e&lt;9;++e){g[t][e]=[];for(let s=0;s&lt;9;++s)g[t][e][s]=p(u,e/8,s/8),g[t][e][s]&gt;255?g[t][e][s]=255:g[t][e][s]&lt;0&amp;&amp;(g[t][e][s]=0)}}h=[];for(let t=3*s,e=3*s+4;t&lt;e;++t)h.push(this.nodes[t].slice(3*r,3*r+4));l=y(h);for(let s=0;s&lt;8;++s)for(let r=0;r&lt;8;++r)(a=new m(l[s][r],[[[g[0][s][r],g[1][s][r],g[2][s][r],g[3][s][r]],[g[0][s][r+1],g[1][s][r+1],g[2][s][r+1],g[3][s][r+1]]],[[g[0][s+1][r],g[1][s+1][r],g[2][s+1][r],g[3][s+1][r]],[g[0][s+1][r+1],g[1][s+1][r+1],g[2][s+1][r+1],g[3][s+1][r+1]]]])).paint(t,e)}}}transform(t){if(t instanceof x)for(let e=0,s=this.nodes.length;e&lt;s;++e)for(let s=0,r=this.nodes[0].length;s&lt;r;++s)this.nodes[e][s]=this.nodes[e][s].add(t);else if(t instanceof g)for(let e=0,s=this.nodes.length;e&lt;s;++e)for(let s=0,r=this.nodes[0].length;s&lt;r;++s)this.nodes[e][s]=this.nodes[e][s].transform(t)}scale(t){for(let e=0,s=this.nodes.length;e&lt;s;++e)for(let s=0,r=this.nodes[0].length;s&lt;r;++s)this.nodes[e][s]=this.nodes[e][s].scale(t)}}document.querySelectorAll(&quot;rect,circle,ellipse,path,text&quot;).forEach((r,n)=&gt;{let o=r.getAttribute(&quot;id&quot;);o||(o=&quot;patchjs_shape&quot;+n,r.setAttribute(&quot;id&quot;,o));const i=r.style.fill.match(/^url\(\s*&quot;?\s*#([^\s&quot;]+)&quot;?\s*\)/),a=r.style.stroke.match(/^url\(\s*&quot;?\s*#([^\s&quot;]+)&quot;?\s*\)/);if(i&amp;&amp;i[1]){const a=document.getElementById(i[1]);if(a&amp;&amp;&quot;meshgradient&quot;===a.nodeName){const i=r.getBBox();let l=document.createElementNS(s,&quot;canvas&quot;);d(l,{width:i.width,height:i.height});const c=l.getContext(&quot;2d&quot;);let u=c.createImageData(i.width,i.height);const f=new b(a);&quot;objectBoundingBox&quot;===a.getAttribute(&quot;gradientUnits&quot;)&amp;&amp;f.scale(new x(i.width,i.height));const p=a.getAttribute(&quot;gradientTransform&quot;);null!=p&amp;&amp;f.transform(h(p)),&quot;userSpaceOnUse&quot;===a.getAttribute(&quot;gradientUnits&quot;)&amp;&amp;f.transform(new x(-i.x,-i.y)),f.paintMesh(u.data,l.width),c.putImageData(u,0,0);const y=document.createElementNS(t,&quot;image&quot;);d(y,{width:i.width,height:i.height,x:i.x,y:i.y});let g=l.toDataURL();y.setAttributeNS(e,&quot;xlink:href&quot;,g),r.parentNode.insertBefore(y,r),r.style.fill=&quot;none&quot;;const w=document.createElementNS(t,&quot;use&quot;);w.setAttributeNS(e,&quot;xlink:href&quot;,&quot;#&quot;+o);const m=&quot;patchjs_clip&quot;+n,M=document.createElementNS(t,&quot;clipPath&quot;);M.setAttribute(&quot;id&quot;,m),M.appendChild(w),r.parentElement.insertBefore(M,r),y.setAttribute(&quot;clip-path&quot;,&quot;url(#&quot;+m+&quot;)&quot;),u=null,l=null,g=null}}if(a&amp;&amp;a[1]){const o=document.getElementById(a[1]);if(o&amp;&amp;&quot;meshgradient&quot;===o.nodeName){const i=parseFloat(r.style.strokeWidth.slice(0,-2))*(parseFloat(r.style.strokeMiterlimit)||parseFloat(r.getAttribute(&quot;stroke-miterlimit&quot;))||1),a=r.getBBox(),l=Math.trunc(a.width+i),c=Math.trunc(a.height+i),u=Math.trunc(a.x-i/2),f=Math.trunc(a.y-i/2);let p=document.createElementNS(s,&quot;canvas&quot;);d(p,{width:l,height:c});const y=p.getContext(&quot;2d&quot;);let g=y.createImageData(l,c);const w=new b(o);&quot;objectBoundingBox&quot;===o.getAttribute(&quot;gradientUnits&quot;)&amp;&amp;w.scale(new x(l,c));const m=o.getAttribute(&quot;gradientTransform&quot;);null!=m&amp;&amp;w.transform(h(m)),&quot;userSpaceOnUse&quot;===o.getAttribute(&quot;gradientUnits&quot;)&amp;&amp;w.transform(new x(-u,-f)),w.paintMesh(g.data,p.width),y.putImageData(g,0,0);const M=document.createElementNS(t,&quot;image&quot;);d(M,{width:l,height:c,x:0,y:0});let S=p.toDataURL();M.setAttributeNS(e,&quot;xlink:href&quot;,S);const k=&quot;pattern_clip&quot;+n,A=document.createElementNS(t,&quot;pattern&quot;);d(A,{id:k,patternUnits:&quot;userSpaceOnUse&quot;,width:l,height:c,x:u,y:f}),A.appendChild(M),o.parentNode.appendChild(A),r.style.stroke=&quot;url(#&quot;+k+&quot;)&quot;,g=null,p=null,S=null}}})}();
</script></svg>
